<svg width="40" height="20" viewBox="0 0 40 20" fill="none" xmlns="http://www.w3.org/2000/svg"><path d="M19.8147 14.3252L17.067 17.0698C15.1861 18.9486 12.6551 20 10.0003 20C7.34539 20 4.81436 18.9717 2.93351 17.0698C1.05266 15.168 0 12.663 0 10.0112C0 7.35934 1.02944 4.83121 2.93351 2.9525C4.83758 1.07379 7.34539 0.0223389 10.0003 0.0223389C12.6551 0.0223389 15.1861 1.0506 17.067 2.9525L19.1104 4.99356L14.9772 9.12208L12.9338 7.08101C12.1597 6.30788 11.0994 5.85947 10.0003 5.85947C8.90116 5.85947 7.84076 6.28469 7.06674 7.08101C6.29273 7.85414 5.8438 8.91333 5.8438 10.0112C5.8438 11.109 6.26951 12.1682 7.06674 12.9413C7.84076 13.7145 8.90116 14.1629 10.0003 14.1629C11.0994 14.1629 12.1597 13.7377 12.9338 12.9413L15.5654 10.3127" fill="#EFA145"></path><path d="M16.2695 9.58681L22.9338 2.93016C24.8146 1.05146 27.3457 0 30.0005 0C32.6554 0 35.1864 1.02826 37.0673 2.93016C38.9481 4.80887 40.0008 7.337 40.0008 9.98884C40.0008 12.6407 38.9713 15.1688 37.0673 17.0475C35.1864 18.9262 32.6554 19.9777 30.0005 19.9777C27.3457 19.9777 24.8146 18.9494 22.9338 17.0475L20.9136 15.0296L25.0468 10.9011L27.067 12.919C27.841 13.6921 28.9014 14.1405 30.0005 14.1405C31.0996 14.1405 32.16 13.7153 32.934 12.919C33.7081 12.1227 34.157 11.0867 34.157 9.98884C34.157 8.89099 33.7313 7.8318 32.934 7.05867C32.1368 6.28554 31.0996 5.83713 30.0005 5.83713C28.9014 5.83713 27.841 6.26235 27.067 7.05867L20.5421 13.5762" fill="#EFA145"></path></svg>