<svg xmlns="http://www.w3.org/2000/svg" width="60" height="60" viewBox="0 0 45 45"><path style="stroke:none;fill-rule:evenodd;fill:#f26f21;fill-opacity:1" d="M22.453 0c12.402 0 22.453 10.074 22.453 22.5S34.856 45 22.453 45 0 34.926 0 22.5 10.05 0 22.453 0m0 0"/><path style="stroke:none;fill-rule:evenodd;fill:#fff;fill-opacity:1" d="m22.453 42.75 4-5.5h-8Zm0-5.5.563-1.102 1.625-3.16h-4.368Zm0-20.96h2.09l-1.262-2.583-.828-1.7-2.094 4.282Zm0-4.282h2.762l-2.762-5.34-2.762 5.34Zm0-5.34h3.383L22.453 2.25 19.07 6.668Zm8.914 30.582h-4.914l3.098-4.262Zm10.606-9.492h-8.614l4.196-5.778Zm-8.614 0 2.703 5.23h-6.507Zm-.16-11.469h8.496l-4.14 5.691Zm0 0-3.277-4.281h5.473Zm-7.984-4.281h4.707l-2.485 4.281Zm4.707 0-4.086-5.34h7.172Zm-7.469 20.976 2.39-5.226H20.07l1.84 4.035Zm0-8.047.293-.507 1.824-3.16h-4.238Zm0-5.921h1.16l-1.16-2.727-1.16 2.727Zm2.188 13.972 2.687-5.23 2.227 5.23Zm2.68-5.23h-2.477l1.285-2.82 1.195 2.82Zm-1.837-4.344.649 1.523h-1.711Zm1.922-1.262 1.36 2.785h-2.633Zm1.438-3.136-1.438 3.136-.43-.882-1.101-2.254Zm1.484 2.879 3.031 5.863h-6.03l1.437-2.82Zm2.871-5.606-2.87 5.606-2.892-5.606Zm-7.324 2.727-1.332-2.727h2.895Zm0 0L24.57 21.27l-.957-2.254Zm-.39 4.398-.915-2.144h2.407ZM13.542 37.25h4.91l-3.098-4.262Zm-10.61-9.492h8.614L7.352 21.98Zm8.614 0-2.703 5.23h6.508Zm.16-11.469H3.211l4.14 5.691Zm0 0 3.277-4.281H9.516Zm7.984-4.281h-4.703l2.48 4.281Zm-4.703 0 4.086-5.34h-7.172Zm7.465 15.75-.43-.613-1.535-2.207h3.926Zm-2.183 5.23-2.688-5.23-2.227 5.23Zm-2.684-5.23h2.477l-1.286-2.82-1.195 2.82Zm1.84-4.344-.649 1.523h1.711ZM17.5 22.152l-1.36 2.785h2.633Zm-1.434-3.136 1.438 3.136.43-.882 1.101-2.254Zm-1.484 2.879-3.031 5.863h6.031l-1.437-2.82Zm-2.875-5.606 2.871 5.606 2.887-5.606Zm7.324 2.727 1.328-2.727h-2.894Zm0 0 1.301 2.254.961-2.254Zm.395 4.398.91-2.144h-2.402Zm0 0"/></svg>