<svg width="93" height="40" viewBox="0 0 93 40" fill="none" xmlns="http://www.w3.org/2000/svg">
<g clip-path="url(#clip0_288_14460)">
<path d="M8.34715 22.9209H11.6509V32.9074H8.34715V31.7851C7.43548 32.8202 6.36909 33.2953 4.93469 33.2953C2.06379 33.2953 0 31.1171 0 28.0531C0 24.9891 2.19552 22.5309 5.21697 22.5309C6.49873 22.5309 7.36857 22.9416 8.34715 23.9975V22.9188V22.9209ZM3.52119 27.9888C3.52119 29.5198 4.56458 30.7064 5.91326 30.7064C7.26193 30.7064 8.39106 29.4554 8.39106 27.9452C8.39106 26.35 7.36857 25.2505 5.93417 25.2505C4.49976 25.2505 3.52119 26.3935 3.52119 27.9888Z" fill="#0D4593"/>
<path d="M17.4324 18.5209H14.1287V32.9074H17.4324V18.5209Z" fill="#0D4593"/>
<path d="M23.1951 22.9209H19.8914V32.9074H23.1951V22.9209Z" fill="#0D4593"/>
<path d="M23.3038 20.0311C23.3038 21.0227 22.5427 21.7571 21.5432 21.7571C20.5438 21.7571 19.7827 21.0227 19.7827 20.0083C19.7827 18.9939 20.5208 18.2616 21.5642 18.2616C22.6076 18.2616 23.3038 18.9939 23.3038 20.0311Z" fill="#44B749"/>
<path d="M34.5219 31.8058C33.3259 32.841 32.1089 33.2932 30.5867 33.2932C29.0645 33.2932 27.6071 32.7124 26.5637 31.7187C25.5642 30.7914 25.0414 29.4762 25.0414 27.966C25.0414 24.7962 27.3457 22.5309 30.5428 22.5309C32.0859 22.5309 33.3259 23.0474 34.7394 24.2568L32.5438 26.2193C31.9772 25.6592 31.4126 25.4206 30.6954 25.4206C29.3907 25.4206 28.3682 26.4786 28.3682 27.8581C28.3682 29.2376 29.4346 30.4035 30.869 30.4035C31.4565 30.4035 31.8685 30.2313 32.5438 29.6919L34.5219 31.8058Z" fill="#0D4593"/>
<path d="M38.4989 28.6153C38.7373 29.7376 39.6071 30.4056 40.8032 30.4056C41.6939 30.4056 42.4341 30.0176 42.7812 29.3061L45.8257 30.0819C45.3259 31.0735 44.9558 31.5278 44.1947 32.1087C43.1743 32.9053 42.0431 33.2953 40.7383 33.2953C37.4555 33.2953 35.0865 31.03 35.0865 27.8602C35.0865 24.6904 37.3029 22.5329 40.5648 22.5329C43.8267 22.5329 46.131 24.7983 46.131 28.2066V28.6153H38.501H38.4989ZM42.7603 26.8665C42.5429 25.8313 41.7608 25.2484 40.5857 25.2484C39.4106 25.2484 38.6955 25.8313 38.478 26.8665H42.7603Z" fill="#0D4593"/>
<path d="M51.2162 32.9074H47.9104V18.5209H51.2162V23.9125C52.1509 22.9209 53.0416 22.5329 54.3464 22.5329C55.7599 22.5329 57.1504 23.1138 58.1289 24.1075C59.0427 25.0348 59.5424 26.3935 59.5424 27.9681C59.5424 31.1814 57.5205 33.2953 54.4551 33.2953C52.9768 33.2953 52.063 32.8866 51.2162 31.8286V32.9074ZM51.1723 28.0324C51.1723 29.5633 52.1948 30.7064 53.5644 30.7064C54.9339 30.7064 56.0212 29.5861 56.0212 27.9888C56.0212 26.3915 54.9778 25.2505 53.6292 25.2505C52.2805 25.2505 51.1723 26.5221 51.1723 28.0324Z" fill="#276AB4"/>
<path d="M64.7176 18.5209H61.4117V32.9074H64.7176V18.5209Z" fill="#276AB4"/>
<path d="M76.3475 22.9209V29.1982C76.3475 30.7292 76.0004 31.5922 75.1515 32.283C74.3047 32.9509 73.1504 33.2953 71.716 33.2953C70.2816 33.2953 68.933 32.9074 68.1279 32.1958C67.3668 31.5486 67.0197 30.5777 67.0197 29.1982V22.9209H70.3234V28.9596C70.3234 29.9948 70.8232 30.5777 71.7139 30.5777C72.5399 30.5777 73.0396 30.0612 73.0396 29.1982V22.9209H76.3454H76.3475Z" fill="#276AB4"/>
<path d="M81.4767 28.6153C81.715 29.7376 82.5849 30.4056 83.7809 30.4056C84.6717 30.4056 85.4119 30.0176 85.759 29.3061L88.8034 30.0819C88.3037 31.0735 87.9336 31.5278 87.1725 32.1087C86.15 32.9053 85.0209 33.2953 83.7161 33.2953C80.4333 33.2953 78.0642 31.03 78.0642 27.8602C78.0642 24.6904 80.2827 22.5329 83.5425 22.5329C86.8024 22.5329 89.1087 24.7983 89.1087 28.2066V28.6153H81.4788H81.4767ZM85.7381 26.8665C85.5206 25.8313 84.7386 25.2484 83.5635 25.2484C82.3883 25.2484 81.6711 25.8313 81.4537 26.8665H85.736H85.7381Z" fill="#276AB4"/>
<path d="M47.074 38.0977H0.378479V38.6371H47.074V38.0977Z" fill="#44B749"/>
<path d="M90.6184 9.11731C88.9289 11.0175 86.4302 12.8534 83.4129 14.2579C80.2995 15.7079 77.1797 16.4443 74.5786 16.4775L76.1301 14.0151C78.0078 13.8699 80.2242 13.2746 82.4573 12.2352C84.6696 11.2063 86.5326 9.90768 87.8437 8.58002L90.6184 9.11523V9.11731Z" fill="#276AB4"/>
<path d="M75.0323 14.0504L73.5185 16.4526C71.0469 16.2908 69.1755 15.4175 68.4311 13.8471C67.3585 11.5797 68.9183 8.4431 72.1196 5.68613L74.4427 6.3707C71.8415 8.4348 70.5033 10.7561 71.2602 12.3597C71.7767 13.4488 73.1693 14.011 75.0323 14.0504Z" fill="#44B749"/>
<path d="M91.2582 8.34561L88.5316 7.8187C89.7444 6.34167 90.2295 4.88332 89.7025 3.7714C88.6131 1.46666 83.6011 1.52267 78.5075 3.89379C77.3386 4.43731 76.2681 5.0555 75.325 5.71311L72.9434 5.01193C74.3025 3.9581 75.9021 2.98102 77.6816 2.15124C84.3727 -0.964624 90.9027 -0.580846 92.6613 2.56406C93.4328 4.19667 92.8411 6.27944 91.254 8.34561" fill="#276AB4"/>
<path d="M82.0809 11.2706C79.5007 12.4717 76.9623 12.9758 75.1996 12.7642L76.7427 11.1233C77.9095 11.3557 79.7223 11.0341 81.5624 10.1774C84.3225 8.89327 86.104 6.89141 85.5436 5.70688C84.9832 4.52236 82.2921 4.60534 79.5341 5.88944C78.6267 6.31263 77.8237 6.81258 77.1755 7.33742L75.1849 7.20673C76.2053 6.33545 77.5164 5.49736 79.0177 4.79619C83.185 2.85656 87.2498 2.73209 88.0946 4.52028C88.9393 6.30848 86.2462 9.33099 82.0789 11.2706" fill="#44B749"/>
<path d="M80.1238 7.53242L76.7469 11.1233L75.2038 12.7642C74.1186 12.6335 73.3303 12.229 73.0062 11.5486C72.4646 10.4035 73.3721 8.75428 75.1891 7.20673L77.1818 7.33742L80.128 7.53242H80.1238Z" fill="#0D4593"/>
<path d="M50.8482 39.4399C50.7185 39.6204 50.5304 39.7594 50.2836 39.8569C50.0369 39.9544 49.7546 40.0021 49.4389 39.9979C49.1859 39.9917 48.9642 39.9336 48.776 39.8216C48.5858 39.7096 48.4373 39.5478 48.3307 39.3382C48.2219 39.1287 48.1613 38.8902 48.1446 38.6226C48.132 38.413 48.1592 38.1309 48.2219 37.7741C48.2867 37.4173 48.3997 37.1103 48.5607 36.8489C48.7217 36.5896 48.9224 36.3904 49.165 36.2535C49.4075 36.1166 49.6835 36.0502 49.9951 36.0564C50.3547 36.0627 50.6412 36.1685 50.8545 36.3738C51.0677 36.5792 51.189 36.8655 51.2204 37.2368H50.7269C50.7081 36.9941 50.6349 36.8074 50.5074 36.6767C50.3798 36.546 50.2042 36.4775 49.9783 36.4713C49.6459 36.4589 49.3678 36.5771 49.144 36.8281C48.9203 37.0771 48.7718 37.4422 48.7028 37.9235L48.6527 38.2927L48.6443 38.4939C48.6443 38.8404 48.7154 39.108 48.8597 39.2968C49.0039 39.4855 49.2047 39.583 49.4619 39.5851C49.8362 39.5934 50.131 39.5021 50.3505 39.3113L50.5094 38.4504H49.6375L49.7128 38.0376H51.0719L50.8524 39.442L50.8482 39.4399Z" fill="#4C4D50"/>
<path d="M53.2925 37.5293L53.0667 37.5065C52.7593 37.5065 52.5168 37.6434 52.3391 37.9193L51.9857 39.9461H51.5048L52.0045 37.0957H52.4687L52.3976 37.4256C52.6004 37.1601 52.8409 37.0314 53.1169 37.0377C53.1754 37.0377 53.2507 37.0501 53.3448 37.0771L53.2925 37.5293Z" fill="#4C4D50"/>
<path d="M54.8586 37.0418C55.0991 37.046 55.3061 37.1103 55.4776 37.2368C55.649 37.3634 55.7766 37.5376 55.8581 37.7596C55.9397 37.9815 55.969 38.2243 55.9418 38.4877L55.9355 38.5458C55.902 38.8238 55.8184 39.0748 55.6867 39.2988C55.5549 39.5229 55.3814 39.6971 55.1723 39.8216C54.9611 39.9461 54.7311 40.0042 54.4802 39.9979C54.2418 39.9938 54.0348 39.9295 53.8633 39.8029C53.6919 39.6764 53.5643 39.5042 53.4849 39.2864C53.4054 39.0686 53.3762 38.83 53.3992 38.5665C53.4263 38.272 53.5058 38.0064 53.6417 37.772C53.7755 37.5376 53.9491 37.3551 54.1603 37.2264C54.3715 37.0978 54.6056 37.0356 54.8607 37.0439L54.8586 37.0418ZM53.8801 38.5707C53.8675 38.6806 53.8675 38.7968 53.8801 38.9151C53.8968 39.1225 53.9595 39.2885 54.0683 39.4109C54.1749 39.5333 54.3192 39.5976 54.4969 39.6038C54.6558 39.61 54.8022 39.5706 54.9381 39.4876C55.0719 39.4046 55.1869 39.2781 55.2789 39.1101C55.3709 38.942 55.4295 38.7553 55.4567 38.55C55.4713 38.3881 55.4734 38.2533 55.465 38.1413C55.4441 37.9297 55.3793 37.7617 55.2706 37.6372C55.1618 37.5148 55.0197 37.4484 54.8398 37.4422C54.591 37.436 54.3819 37.5335 54.2084 37.7326C54.0348 37.9318 53.9282 38.1911 53.8863 38.5126L53.8801 38.5728V38.5707Z" fill="#4C4D50"/>
<path d="M58.8754 39.2698L59.7913 37.0937H60.2868L58.9779 39.944H58.5869L58.2899 37.7886L57.2549 39.944H56.8639L56.5523 37.0937H57.0124L57.188 39.2179L58.2084 37.0937H58.5952L58.8733 39.2698H58.8754Z" fill="#4C4D50"/>
<path d="M61.5581 36.4049L61.4369 37.0957H61.9596L61.8927 37.4733H61.372L61.073 39.247C61.0668 39.2926 61.0668 39.3341 61.0709 39.3735C61.0835 39.5104 61.1588 39.5789 61.2968 39.5789C61.3553 39.5789 61.4327 39.5706 61.5309 39.5519L61.4933 39.9502C61.3783 39.9813 61.2612 39.9979 61.142 39.9979C60.9518 39.9938 60.8075 39.9253 60.7113 39.7884C60.6151 39.6515 60.5796 39.4689 60.6005 39.2387L60.8932 37.4733H60.3851L60.452 37.0957H60.9601L61.0814 36.4049H61.5602H61.5581Z" fill="#4C4D50"/>
<path d="M62.9361 37.4422C63.187 37.1704 63.4776 37.0377 63.8038 37.0439C64.0735 37.048 64.2722 37.1393 64.4018 37.3198C64.5315 37.5003 64.5796 37.7513 64.5461 38.077L64.2325 39.944H63.7515L64.0673 38.0687C64.0777 37.9836 64.0777 37.9027 64.0694 37.828C64.0401 37.5812 63.8937 37.4567 63.6303 37.4505C63.3354 37.4443 63.0824 37.5957 62.8712 37.9089L62.5158 39.9419H62.0349L62.7437 35.8946H63.2246L62.9319 37.438L62.9361 37.4422Z" fill="#4C4D50"/>
<path d="M66.911 39.9461H66.4154L67.0866 36.1104H67.5822L66.911 39.9461Z" fill="#4C4D50"/>
<path d="M68.7155 37.0916L68.6465 37.4526C68.9058 37.1725 69.1985 37.0356 69.5289 37.0418C69.8007 37.048 69.9994 37.1414 70.129 37.3219C70.2586 37.5003 70.3067 37.7534 70.2733 38.077L69.9596 39.944H69.4787L69.7944 38.0708C69.8049 37.9857 69.8049 37.9048 69.7965 37.8322C69.7673 37.5874 69.6209 37.4609 69.3574 37.4567C69.0689 37.4505 68.8159 37.604 68.5984 37.9152L68.2429 39.9461H67.762L68.2618 37.0958H68.7155V37.0916Z" fill="#4C4D50"/>
<path d="M71.9419 39.9979C71.5843 39.9917 71.3041 39.861 71.1034 39.6059C70.9006 39.3507 70.8169 39.025 70.8483 38.6288L70.8608 38.5147C70.8901 38.2326 70.9758 37.9732 71.1139 37.7409C71.2519 37.5065 71.4212 37.3322 71.622 37.2119C71.8227 37.0937 72.0381 37.0377 72.2702 37.0418C72.565 37.048 72.7971 37.1455 72.9664 37.3343C73.1337 37.5231 73.2257 37.7762 73.2425 38.0977C73.2487 38.2118 73.2425 38.3259 73.232 38.44L73.2027 38.6578H71.325C71.2937 38.9151 71.3355 39.135 71.4547 39.3154C71.5718 39.4959 71.7474 39.5913 71.9816 39.5976C72.2639 39.6038 72.5273 39.4772 72.7678 39.2179L73.0438 39.4503C72.9225 39.6225 72.7678 39.7573 72.5775 39.8548C72.3872 39.9523 72.1761 40 71.9419 39.9959V39.9979ZM72.2472 37.4401C72.0485 37.4339 71.875 37.5023 71.7286 37.6413C71.5801 37.7803 71.463 37.9857 71.3773 38.2595H72.7741L72.7845 38.2201C72.8138 37.9981 72.7762 37.8156 72.6779 37.6683C72.5775 37.521 72.4353 37.4463 72.2492 37.4401H72.2472Z" fill="#4C4D50"/>
<path d="M74.5284 39.2781L75.5634 37.0937H76.0715L74.6246 39.944H74.2587L73.6962 37.0937H74.1688L74.5305 39.2781H74.5284Z" fill="#4C4D50"/>
<path d="M76.5859 39.9461H76.1071L76.6068 37.0957H77.0857L76.5859 39.9461ZM76.9811 36.0544C77.0627 36.0502 77.1296 36.0751 77.1839 36.127C77.2383 36.1788 77.2655 36.2473 77.2655 36.3303C77.2655 36.4132 77.2362 36.4796 77.1839 36.5336C77.1317 36.5854 77.0647 36.6145 76.9811 36.6186C76.8975 36.6228 76.8306 36.5979 76.7762 36.5481C76.7239 36.4962 76.6967 36.4298 76.6988 36.3469C76.6988 36.2639 76.7281 36.1954 76.7783 36.1415C76.8306 36.0875 76.8975 36.0585 76.9811 36.0544Z" fill="#4C4D50"/>
<path d="M78.6413 36.4049L78.52 37.0957H79.0428L78.9759 37.4733H78.4552L78.1562 39.247C78.1499 39.2926 78.1499 39.3341 78.1541 39.3735C78.1667 39.5104 78.242 39.5789 78.38 39.5789C78.4385 39.5789 78.5159 39.5706 78.6141 39.5519L78.5765 39.9502C78.4615 39.9813 78.3444 39.9979 78.2252 39.9979C78.0349 39.9938 77.8907 39.9253 77.7945 39.7884C77.6983 39.6515 77.6628 39.4689 77.6837 39.2387L77.9764 37.4733H77.4683L77.5352 37.0957H78.0433L78.1646 36.4049H78.6434H78.6413Z" fill="#4C4D50"/>
<path d="M80.8787 39.9461C80.8661 39.8942 80.8598 39.8444 80.8598 39.7967L80.8682 39.6473C80.6047 39.8901 80.3245 40.0083 80.0297 40C79.7767 39.9959 79.5718 39.917 79.4129 39.7614C79.254 39.6058 79.1829 39.4108 79.1975 39.1785C79.2142 38.8756 79.3481 38.6412 79.5969 38.4711C79.8457 38.301 80.1719 38.216 80.5776 38.216H81.0794L81.1108 37.9919C81.1275 37.8218 81.0961 37.687 81.0104 37.5874C80.9267 37.4878 80.7992 37.4359 80.6319 37.4339C80.4667 37.4297 80.3225 37.4712 80.1949 37.5542C80.0674 37.6372 79.99 37.7471 79.9628 37.884H79.4798C79.4965 37.7202 79.5613 37.5708 79.6763 37.4422C79.7914 37.3136 79.9398 37.2119 80.1196 37.1414C80.2995 37.0708 80.4876 37.0356 80.68 37.0397C80.979 37.0459 81.2111 37.1372 81.3784 37.3094C81.5457 37.4816 81.6147 37.7119 81.5875 37.9981L81.3533 39.4108L81.3408 39.6141C81.3366 39.7116 81.347 39.8071 81.3721 39.9004L81.3659 39.9461H80.8766H80.8787ZM80.1259 39.5768C80.2806 39.581 80.4249 39.5436 80.5629 39.4669C80.7009 39.3901 80.818 39.2843 80.9184 39.1495L81.0229 38.5624H80.6591C80.3559 38.5603 80.1238 38.608 79.9628 38.7014C79.8018 38.7968 79.7098 38.9296 79.6889 39.1038C79.6722 39.2366 79.7035 39.3486 79.783 39.4378C79.8624 39.527 79.9754 39.5727 80.1259 39.5768Z" fill="#4C4D50"/>
<path d="M84.6257 38.5334C84.5901 38.8259 84.5107 39.0872 84.3831 39.3217C84.2577 39.5561 84.105 39.7283 83.9273 39.8403C83.7475 39.9523 83.5509 40.0062 83.3335 40C82.9864 39.9938 82.7292 39.8631 82.5598 39.6121L82.4615 39.944H82.0182L82.7271 35.8967H83.208L82.9195 37.409C83.1495 37.1559 83.4297 37.0335 83.7579 37.0397C84.0339 37.046 84.2493 37.1476 84.404 37.3426C84.5588 37.5376 84.6403 37.8052 84.6487 38.1496C84.6487 38.2616 84.6445 38.3715 84.632 38.4753L84.6257 38.5313V38.5334ZM84.1699 38.2574C84.1761 38.0023 84.1322 37.8052 84.0402 37.6704C83.9482 37.5335 83.8081 37.4629 83.6178 37.4567C83.3188 37.4505 83.0658 37.5978 82.8588 37.9048L82.6434 39.1433C82.7501 39.4337 82.9487 39.581 83.2415 39.5872C83.4297 39.5934 83.5927 39.5395 83.7349 39.4212C83.875 39.303 83.9817 39.1391 84.0549 38.9275C84.128 38.7159 84.1657 38.4939 84.1719 38.2574H84.1699Z" fill="#4C4D50"/>
<path d="M85.5269 39.9461H85.0481L85.7548 35.8988H86.2357L85.5269 39.9461Z" fill="#4C4D50"/>
<path d="M87.5551 39.9979C87.1976 39.9917 86.9174 39.861 86.7166 39.6059C86.5138 39.3507 86.4302 39.025 86.4615 38.6288L86.4741 38.5147C86.5034 38.2326 86.5891 37.9732 86.7271 37.7409C86.8651 37.5065 87.0345 37.3322 87.2352 37.2119C87.4359 37.0937 87.6513 37.0377 87.8834 37.0418C88.1782 37.048 88.4103 37.1455 88.5797 37.3343C88.747 37.5231 88.839 37.7762 88.8557 38.0977C88.862 38.2118 88.8557 38.3259 88.8452 38.44L88.816 38.6578H86.9383C86.9069 38.9151 86.9487 39.135 87.0679 39.3154C87.185 39.4959 87.3607 39.5913 87.5949 39.5976C87.8771 39.6038 88.1406 39.4772 88.3811 39.2179L88.6571 39.4503C88.5358 39.6225 88.3811 39.7573 88.1908 39.8548C88.0005 39.9523 87.7893 40 87.5551 39.9959V39.9979ZM87.8604 37.4401C87.6618 37.4339 87.4882 37.5023 87.3418 37.6413C87.1934 37.7803 87.0763 37.9857 86.9906 38.2595H88.3873L88.3978 38.2201C88.4271 37.9981 88.3894 37.8156 88.2911 37.6683C88.1908 37.521 88.0486 37.4463 87.8625 37.4401H87.8604Z" fill="#4C4D50"/>
</g>
<defs>
<clipPath id="clip0_288_14460">
<rect width="93" height="40" fill="white"/>
</clipPath>
</defs>
</svg>
