<svg xmlns="http://www.w3.org/2000/svg" width="218" height="44" fill="none"><path fill="#2E51FF" d="M108.884 12.789c2.313 0 4.097.674 5.375 1.998.048.096.12.12.168.096.072-.025.097-.169.097-.169V13.68a.49.49 0 0 1 .505-.506h4.026c.145 0 .361.145.361.145v.001a.49.49 0 0 1 .145.361v20.206c0 3.637-1.036 6.213-3.109 7.779-2.049 1.54-4.724 2.311-8.026 2.335h-1.591a.92.92 0 0 1-.771-.433l-2.097-3.492a.452.452 0 0 1 .385-.698h3.808c2.169 0 3.784-.409 4.821-1.276 1.036-.843 1.543-2.313 1.543-4.335v-.337c0-.072-.049-.144-.097-.144a.26.26 0 0 0-.168.072c-1.206 1.276-2.868 1.926-5.062 1.926-1.88 0-3.616-.482-5.182-1.445s-2.676-2.433-3.279-4.407q-.577-2.06-.577-5.274c0-2.41.24-4.264.698-5.54.579-1.758 1.591-3.18 3.013-4.239 1.422-1.06 3.085-1.59 5.014-1.59m100.075-.001c2.676 0 4.724.674 6.171 2.023q2.169 2.021 2.674 5.708c.122.819.17 1.854.17 3.082v1.42q0 .434-.434.433h-14.221c-.003.001-.169.05-.169.17.049 1.613.145 2.648.265 3.13.313 1.325 1.013 2.361 2.073 3.131s2.411 1.132 4.05 1.132c1.229 0 2.313-.289 3.253-.843s1.664-1.348 2.193-2.384c.17-.265.387-.313.627-.168l1.712 1.01c.241.145.289.362.168.627-.723 1.397-1.831 2.505-3.301 3.324s-3.158 1.204-5.062 1.204c-2.073-.024-3.833-.53-5.23-1.493q-2.098-1.445-3.038-4.046-.795-2.096-.794-6.069c0-1.228 0-2.24.072-3.01.048-.77.144-1.47.337-2.096.506-1.902 1.495-3.42 3.012-4.576 1.519-1.132 3.327-1.71 5.472-1.71m-76.743-.003c5.736 0 8.966 2.987 9.689 8.984.12.722.168 1.54.168 2.432v.026l-.048 1.349c0 .337-.168.53-.529.53h-13.667q-.217 0-.217.217c.096.963.217 1.613.385 1.95.699 2.096 2.411 3.155 5.111 3.179 1.976 0 3.543-.82 4.724-2.433.12-.169.265-.265.433-.265.121 0 .218.048.314.12l2.699 2.216c.266.193.314.433.12.698-.891 1.276-2.096 2.263-3.59 2.961-1.495.699-3.158 1.036-4.989 1.036q-3.4 0-5.786-1.518-2.386-1.516-3.47-4.263c-.675-1.565-1.012-3.757-1.012-6.55 0-1.686.168-3.059.529-4.094.579-2.024 1.688-3.637 3.303-4.816 1.614-1.18 3.566-1.759 5.833-1.759m33.792-8.523c2.072 0 3.929.433 5.52 1.276a8.97 8.97 0 0 1 3.687 3.589q1.302 2.312 1.302 5.346v11.079q0 3.035-1.302 5.346a8.97 8.97 0 0 1-3.687 3.589c-1.591.843-3.447 1.276-5.52 1.276-2.074 0-3.928-.433-5.495-1.276a8.98 8.98 0 0 1-3.688-3.59q-1.301-2.311-1.301-5.345V14.473q0-3.035 1.301-5.346a8.98 8.98 0 0 1 3.688-3.59c1.591-.842 3.422-1.275 5.495-1.275M17.077.145c.097-.193.362-.193.482 0l20.608 34.487a.542.542 0 0 1-.458.82H31.85a.52.52 0 0 1-.457-.266L13.92 5.973a.57.57 0 0 1 0-.554zm44.012 2.793c.89 0 1.638.53 1.976 1.3l12.702 30.586.024.024c.048.049.048.12.048.217 0 .265-.193.385-.555.385h-5.013q-.507 0-.65-.433l-1.663-4.672c-.048-.121-.242-.17-.242-.17H54.507c-.095 0-.239.167-.24.17l-1.664 4.672q-.144.433-.65.433h-5.014c-.216 0-.36-.048-.457-.144-.096-.096-.12-.264-.048-.457L59.137 4.19a2.11 2.11 0 0 1 1.952-1.253m28.465 9.852c2.41 0 4.242.698 5.64 2.096v.021c1.422 1.398 2.12 3.3 2.12 5.707V34.92a.49.49 0 0 1-.505.506h-4.025a.49.49 0 0 1-.507-.506V21.674c0-1.325-.385-2.409-1.133-3.251-.747-.82-1.759-1.252-3.012-1.252q-1.88 0-3.037 1.228c-.772.82-1.157 1.878-1.157 3.227V34.92a.49.49 0 0 1-.506.506h-4.025a.49.49 0 0 1-.507-.506V13.679a.495.495 0 0 1 .507-.506h4.025a.49.49 0 0 1 .505.506v1.397s.025.144.098.17c.048.023.096 0 .12-.097 1.181-1.565 2.988-2.359 5.399-2.359m99.713.046c2.339 0 4.219.698 5.617 2.071h-.049c1.399 1.372 2.097 3.227 2.097 5.54v14.522q0 .433-.433.433h-2.243q-.432 0-.433-.433V21.073c0-1.614-.481-2.938-1.471-3.95-.988-1.036-2.241-1.542-3.808-1.542s-2.916.506-3.928 1.494c-.989.987-1.494 2.311-1.494 3.926v13.992q0 .433-.435.433h-2.241q-.433 0-.433-.433v-21.41q0-.434.433-.433h2.241q.435 0 .435.433v1.902s0 .096.072.12c.048.024.072 0 .12-.048 1.302-1.806 3.278-2.721 5.953-2.721M6.157 29.766c.217 0 .337.218.241.41l-1.47 2.552-1.47 2.553c-.097.169-.362.169-.46 0l-1.47-2.553-1.495-2.552c-.096-.17.025-.41.242-.41zm6.99 0c.218 0 .338.218.242.41l-1.47 2.552-1.471 2.553c-.096.169-.362.169-.459 0l-2.941-5.105c-.096-.17.024-.41.241-.41zm7.11 0c.217 0 .337.218.241.41l-1.47 2.552-1.47 2.553c-.097.169-.362.169-.46 0l-2.94-5.105c-.097-.17.023-.41.24-.41zm7.087 0c.217 0 .337.218.24.41l-1.47 2.552-1.47 2.553c-.096.169-.362.169-.459 0l-2.941-5.105c-.096-.17.024-.41.241-.41zM149.69 4.842c.411 0 .772.337.772.77v24.565c0 .626.507 1.132 1.134 1.132h.94v-.001h.024c.265 0 .505.217.505.506v3.083a.51.51 0 0 1-.505.506h-3.423a3.71 3.71 0 0 1-3.712-3.709V5.611c0-.409.337-.77.771-.77zm16.318 2.12c-2.243 0-3.977.673-5.327 2.047-1.349 1.372-2.024 3.155-2.024 5.394v11.27c0 2.24.675 4.023 2.024 5.371 1.35 1.348 3.133 2.022 5.327 2.022s4.025-.674 5.375-2.022 2.024-3.13 2.024-5.37v-11.27c0-2.24-.674-4.023-2.024-5.395s-3.133-2.048-5.375-2.048m-55.992 10.236c-1.036 0-1.928.29-2.651.867-.723.578-1.253 1.348-1.566 2.312-.362.818-.531 2.046-.531 3.828s.144 3.06.434 3.781c.289.94.82 1.686 1.59 2.288.772.602 1.639.891 2.772.891q1.7 0 2.748-.867c.699-.578 1.157-1.324 1.399-2.264.12-.434.192-.915.24-1.421v.026c.073-.506.073-1.348.073-2.456q0-1.663-.073-2.385a7 7 0 0 0-.288-1.421c-.242-.964-.7-1.734-1.423-2.312-.699-.578-1.615-.867-2.724-.867M9.58 23.6c.217 0 .337.217.241.41l-1.47 2.552-1.471 2.552c-.096.17-.361.17-.459 0l-2.94-5.105c-.097-.169.023-.409.24-.409zm7.158 0c.218 0 .338.217.242.41l-1.47 2.552-1.471 2.552c-.096.17-.362.17-.458 0L10.64 24.01c-.096-.169.024-.409.241-.409zm6.918 0c.217 0 .337.217.241.41l-1.47 2.552-1.471 2.552c-.096.17-.361.17-.458 0l-2.94-5.105c-.097-.169.023-.409.24-.409zm37.407-11.487c-.072 0-.144.167-.145.169l-5.11 13.197c-.047.169.025.265.194.265h10.17c.194 0 .266-.096.194-.265l-5.159-13.197c-.024-.121-.07-.17-.144-.17m-47.94 5.468c.217 0 .337.217.24.409l-1.47 2.553-1.47 2.552c-.096.17-.362.17-.459 0l-1.47-2.552-1.471-2.553c-.096-.17.024-.409.241-.409zm7.231 0c.218 0 .338.217.242.409l-1.471 2.553-1.47 2.552c-.097.17-.362.17-.458 0l-1.47-2.552-1.471-2.553c-.096-.17.024-.409.241-.409zm188.581-2.072c-1.495 0-2.627.386-3.592 1.133h.024c-.964.746-1.567 1.758-1.88 3.01-.168.626-.288 1.613-.361 2.986 0 .12.048.17.169.17h11.4c.002-.001.169-.05.169-.17-.048-1.324-.144-2.263-.265-2.817-.313-1.325-.964-2.361-1.952-3.155-.988-.772-2.217-1.157-3.712-1.157m-76.719 1.685q-1.627 0-2.676.795h-.024c-.723.53-1.205 1.276-1.495 2.24-.168.506-.289 1.132-.337 1.926-.048.144 0 .217.169.217h8.846q.217 0 .217-.217c-.048-.722-.145-1.276-.265-1.662-.266-1.035-.771-1.854-1.543-2.432q-1.157-.867-2.892-.867m-115.55-5.539c.218 0 .338.218.242.41l-1.471 2.552-1.47 2.553c-.097.169-.362.169-.458 0l-2.941-5.105c-.096-.17.024-.41.241-.41zm188.702 4.987h-.001l.001-.001m9.305-13.657A3.33 3.33 0 0 1 218 6.31a3.33 3.33 0 0 1-3.327 3.324 3.33 3.33 0 0 1-3.326-3.324 3.33 3.33 0 0 1 3.326-3.324m0 .555a2.787 2.787 0 0 0-2.772 2.77 2.787 2.787 0 0 0 2.772 2.769 2.786 2.786 0 0 0 2.772-2.77 2.77 2.77 0 0 0-2.772-2.77m-1.11 1.01c0-.023.024 0 .048 0h1.423c.217 0 .385.049.554.12.168.097.289.218.386.362.096.169.144.337.144.554 0 .241-.072.433-.192.602a.83.83 0 0 1-.507.337l.723 1.494v.024c0 .024 0 .048-.048.048h-.482s-.048-.001-.072-.048h-.049l-.675-1.47h-.65s-.024 0-.024.024v1.518c0 .024-.024 0-.048 0h-.531c-.024 0 0-.024 0-.048zm.603.46s-.024 0-.024.024v1.01s0 .024.024.024h.772a.6.6 0 0 0 .409-.144.5.5 0 0 0 .144-.385.5.5 0 0 0-.144-.385.57.57 0 0 0-.409-.144z"/></svg>