<svg width="102" height="36" viewBox="0 0 102 36" fill="none" xmlns="http://www.w3.org/2000/svg">
<path d="M17.9999 36C27.9409 36 35.9998 27.9411 35.9998 18C35.9998 8.05889 27.9409 0 17.9999 0C8.05881 0 0 8.05889 0 18C0 27.9411 8.05881 36 17.9999 36Z" fill="url(#paint0_linear_19448_2743)"/>
<path fill-rule="evenodd" clip-rule="evenodd" d="M26.1687 34.0309L12.0017 23.0673L14.0022 17.9923L10.6172 13.3788L12.0017 9.22656H26.3094L36.0017 18.0372C35.9846 25.0164 31.9924 31.0618 26.1687 34.0309Z" fill="#17875F"/>
<path d="M27.6826 11.7547H23.5767V27.965C22.9071 27.965 22.2476 27.837 21.5978 27.5811C20.9478 27.3449 20.6229 27.0693 20.6229 26.7543V23.2407C19.2445 24.1069 17.7479 24.5398 16.1331 24.5398C14.5183 24.5398 13.199 24.1265 12.175 23.2997C11.1708 22.4533 10.6685 21.3608 10.6685 20.0223C10.6685 18.9987 11.023 18.0833 11.7319 17.2762C10.7276 16.9023 9.93009 16.351 9.3393 15.6227C8.74854 14.8747 8.45312 13.9888 8.45312 12.9654C8.45312 11.9417 8.86669 11.0067 9.69379 10.1602C10.5405 9.31388 11.6925 8.89062 13.1498 8.89062C14.2131 8.89062 15.0303 9.12679 15.6015 9.59925C16.1922 10.0717 16.4876 10.6524 16.4876 11.3414C16.4876 12.739 15.5817 13.7232 13.7701 14.294C13.4747 14.0578 13.258 13.7232 13.1202 13.2901C13.9275 12.7586 14.3313 12.1977 14.3313 11.6071C14.3313 11.2724 14.2328 11.0067 14.0359 10.8099C13.8389 10.5933 13.5239 10.485 13.0907 10.485C12.6574 10.485 12.2341 10.7213 11.8205 11.1937C11.407 11.6662 11.2002 12.2862 11.2002 13.0539C11.2002 13.8019 11.407 14.4318 11.8205 14.9437C12.2537 15.4357 12.7953 15.7802 13.4451 15.9771C14.3115 15.5441 15.2863 15.2193 16.3695 15.0026C17.1177 15.7114 17.5903 16.4494 17.7873 17.2171C16.5663 17.4534 15.5325 17.8274 14.6858 18.3393C13.8587 18.8314 13.4451 19.4022 13.4451 20.0518C13.4451 20.6817 13.6617 21.1934 14.095 21.5872C14.5479 21.9809 15.1879 22.1777 16.015 22.1777C16.8617 22.1777 17.6987 21.9415 18.5258 21.4691C19.3528 20.9966 20.0519 20.3765 20.6229 19.6088V11.7547H18.5848C17.8759 10.9279 17.5215 10.052 17.5215 9.12679H26.767C27.3773 9.91418 27.6826 10.7902 27.6826 11.7547Z" fill="white"/>
<path d="M49.595 12.9428C50.3838 12.9428 51.085 13.1181 51.6985 13.4687C52.3123 13.8114 52.8102 14.2895 53.1928 14.9031V8.6875H56.6474V26.2825H53.3361V24.4776C52.8501 25.2506 52.2964 25.8123 51.6747 26.163C51.053 26.5136 50.2801 26.6889 49.356 26.6889C47.8339 26.6889 46.5509 26.0753 45.5069 24.8481C44.4712 23.613 43.9531 22.0312 43.9531 20.1027C43.9531 17.8795 44.4629 16.1303 45.4831 14.8553C46.5109 13.5803 47.8818 12.9428 49.595 12.9428ZM50.3359 23.8202C51.3003 23.8202 52.0333 23.4616 52.5355 22.7444C53.0373 22.0272 53.2882 21.0988 53.2882 19.9593C53.2882 18.3656 52.8861 17.226 52.0812 16.5407C51.5872 16.1263 51.0134 15.9191 50.36 15.9191C49.3639 15.9191 48.6306 16.2976 48.1604 17.0547C47.6982 17.8037 47.4674 18.7361 47.4674 19.8517C47.4674 21.055 47.7025 22.0192 48.1723 22.7444C48.6507 23.4616 49.3718 23.8202 50.3359 23.8202ZM66.9387 12.9189C67.7436 12.9189 68.4726 13.0584 69.1264 13.3373C69.7877 13.6162 70.3295 14.0425 70.7518 14.6163C71.1103 15.1023 71.3296 15.6044 71.4091 16.1223C71.489 16.6323 71.5286 17.4691 71.5286 18.6325V26.2825H68.0503V18.3576C68.0503 17.6563 67.9308 17.0905 67.6918 16.6602C67.3811 16.0546 66.7914 15.7518 65.9227 15.7518C65.0224 15.7518 64.3369 16.0546 63.8668 16.6602C63.4046 17.2579 63.1734 18.1145 63.1734 19.2302V26.2825H59.779V8.72336H63.1734V14.9509C63.6677 14.1939 64.2376 13.668 64.8827 13.3731C65.5365 13.0703 66.2215 12.9189 66.9387 12.9189ZM81.9041 19.9473C81.6889 20.0828 81.4696 20.1944 81.2468 20.282C81.0315 20.3617 80.7327 20.4374 80.35 20.5091L79.585 20.6526C78.8679 20.7801 78.3538 20.9355 78.0432 21.1187C77.5172 21.4295 77.2544 21.9116 77.2544 22.5651C77.2544 23.1468 77.4135 23.5691 77.7325 23.8321C78.059 24.0871 78.4536 24.2146 78.9158 24.2146C79.6488 24.2146 80.3223 23.9994 80.9357 23.5691C81.5575 23.1388 81.88 22.3539 81.9041 21.2144V19.9473ZM79.8363 18.3576C80.4656 18.2779 80.9159 18.1783 81.187 18.0587C81.673 17.8516 81.916 17.5288 81.916 17.0905C81.916 16.5566 81.7288 16.1901 81.3541 15.9909C80.9876 15.7837 80.4458 15.6801 79.7287 15.6801C78.9237 15.6801 78.3538 15.8793 78.0194 16.2777C77.7804 16.5726 77.6209 16.971 77.5413 17.473H74.2542C74.3258 16.3335 74.6444 15.3972 75.2103 14.6641C76.1107 13.5166 77.6569 12.9428 79.8482 12.9428C81.2745 12.9428 82.5417 13.2257 83.6491 13.7915C84.7568 14.3572 85.3108 15.4251 85.3108 16.9949V22.9715C85.3108 23.3859 85.3187 23.8879 85.3346 24.4776C85.3583 24.9238 85.4264 25.2267 85.5376 25.386C85.6492 25.5454 85.8166 25.6769 86.0398 25.7805V26.2825H82.3343C82.2307 26.0195 82.159 25.7725 82.1191 25.5414C82.0795 25.3103 82.0474 25.0473 82.0237 24.7525C81.5535 25.2625 81.0117 25.6968 80.3979 26.0554C79.665 26.4777 78.8362 26.6889 77.9118 26.6889C76.7324 26.6889 75.7561 26.3542 74.9832 25.6848C74.2182 25.0075 73.8359 24.0513 73.8359 22.8161C73.8359 21.2144 74.4533 20.0549 75.6884 19.3377C76.3659 18.9472 77.362 18.6684 78.6768 18.501L79.8363 18.3576ZM95.5664 12.9428C96.9132 12.9428 98.0126 13.2974 98.8655 14.0066C99.7262 14.7079 100.156 15.8753 100.156 17.5089V26.2825H96.6662V18.3576C96.6662 17.6723 96.5744 17.1463 96.3912 16.7798C96.0564 16.1104 95.4188 15.7757 94.4785 15.7757C93.3233 15.7757 92.5302 16.2658 92.1 17.2459C91.8768 17.7639 91.7652 18.4253 91.7652 19.2302V26.2825H88.3708V13.2775H91.6576V15.178C92.0961 14.5087 92.5104 14.0266 92.901 13.7317C93.6023 13.2058 94.4908 12.9428 95.5664 12.9428Z" fill="#138C61"/>
<defs>
<linearGradient id="paint0_linear_19448_2743" x1="33.7498" y1="30.6" x2="20.8978" y2="-0.489289" gradientUnits="userSpaceOnUse">
<stop stop-color="#138C61"/>
<stop offset="1" stop-color="#4DBA93" stop-opacity="0.99"/>
</linearGradient>
</defs>
</svg>
