<?xml version="1.0" encoding="UTF-8"?>
<svg width="125px" height="34px" viewBox="0 0 125 34" version="1.1" xmlns="http://www.w3.org/2000/svg" xmlns:xlink="http://www.w3.org/1999/xlink">
    <title>FYERS</title>
    <g id="Login" stroke="none" stroke-width="1" fill="none" fill-rule="evenodd">
        <g id="Login-1.0---No-cookies" transform="translate(-583.000000, -110.000000)">
            <g id="Group-2" transform="translate(543.000000, 70.000000)">
                <g id="FYERS" transform="translate(40.000000, 40.000000)">
                    <path d="M20.1752864,0 L20.1752864,33.5820896 L15.6195765,26.2156957 L15.6195765,15.4910929 L9.32835821,15.4910929 L6.29121833,10.6162735 L15.6195765,10.6162735 L15.6195765,6.39142995 L3.68795557,6.39142995 L0,0 L20.1752864,0 Z M41.9776119,0 L38.2896564,6.39142995 L26.3580354,6.39142995 L26.3580354,10.6162735 L35.5779243,10.6162735 L32.6492537,15.4910929 L26.3580354,15.4910929 L26.3580354,26.2156957 L21.8023256,33.5820896 L21.8023256,0 L41.9776119,0 Z" fill="#436AF5"></path>
                    <path d="M51.513748,26.119403 L51.513748,17.840151 L57.7882051,17.840151 L57.7882051,14.724907 L51.513748,14.724907 L51.513748,9.70122525 L59.7014925,9.70122525 L59.7014925,6.52985075 L47.5746269,6.52985075 L47.5746269,26.119403 L51.513748,26.119403 Z M71.8937937,26.119403 L71.8937937,19.2995445 L78.358209,6.52985075 L74.0851209,6.52985075 L70.003774,15.482669 L65.8950354,6.52985075 L61.5671642,6.52985075 L68.0589711,19.2995445 L68.0589711,26.119403 L71.8937937,26.119403 Z M90.4850746,26.119403 L90.4850746,22.9245404 L83.160586,22.9245404 L83.160586,17.7398949 L89.6558872,17.7398949 L89.6558872,14.6291077 L83.160586,14.6291077 L83.160586,9.72471334 L90.4850746,9.72471334 L90.4850746,6.52985075 L79.2910448,6.52985075 L79.2910448,26.119403 L90.4850746,26.119403 Z M98.2193915,26.119403 L98.2193915,18.485652 L100.106508,18.485652 L104.509779,26.119403 L109.141791,26.119403 L104.366815,18.1769341 C105.872696,17.7840204 107.006872,17.0683563 107.769343,16.0299416 C108.531814,14.991527 108.91305,13.8268186 108.91305,12.5358166 C108.91305,11.4132062 108.641419,10.3981792 108.098159,9.49073579 C107.554898,8.58329235 106.740007,7.86295065 105.653485,7.32971069 C104.566964,6.79647073 103.251701,6.52985075 101.707697,6.52985075 L101.707697,6.52985075 L94.2164179,6.52985075 L94.2164179,26.119403 L98.2193915,26.119403 Z M101.727774,14.9253731 L98.880597,14.9253731 L98.880597,9.32835821 L101.727774,9.32835821 C102.652498,9.32835821 103.341986,9.5695304 103.796236,10.0518748 C104.250487,10.5342191 104.477612,11.2122315 104.477612,12.0859119 C104.477612,12.977794 104.250487,13.674008 103.796236,14.1745541 C103.341986,14.6751001 102.652498,14.9253731 101.727774,14.9253731 L101.727774,14.9253731 Z M118.169651,26.119403 C119.589184,26.119403 120.815144,25.8591222 121.847531,25.3385607 C122.879919,24.8179992 123.663427,24.1193508 124.198056,23.2426156 C124.732685,22.3658804 125,21.4160839 125,20.3932262 C125,19.2059806 124.71425,18.2470515 124.14275,17.5164388 C123.571249,16.7858261 122.889136,16.2378666 122.09641,15.8725603 C121.303684,15.5072539 120.280514,15.1419476 119.026901,14.7766413 C118.105127,14.5026615 117.390751,14.2606461 116.883775,14.0505949 C116.376799,13.8405438 115.952783,13.566564 115.611726,13.2286557 C115.27067,12.8907473 115.100142,12.4660787 115.100142,11.9546498 C115.100142,11.2240372 115.325976,10.666945 115.777646,10.2833733 C116.229315,9.89980169 116.833078,9.70801586 117.588933,9.70801586 C118.455401,9.70801586 119.151341,9.92263334 119.676752,10.3518683 C120.202164,10.7811032 120.483305,11.3244964 120.520176,11.9820478 L120.520176,11.9820478 L124.778774,11.9820478 C124.649726,10.265108 123.963004,8.92717357 122.718608,7.96824444 C121.474212,7.00931531 119.856498,6.52985075 117.865465,6.52985075 C116.53811,6.52985075 115.358238,6.75360088 114.325851,7.20110114 C113.293464,7.6486014 112.49152,8.29245381 111.920019,9.13265839 C111.348519,9.97286296 111.062769,10.9591901 111.062769,12.0916397 C111.062769,13.2971506 111.34391,14.2606461 111.906193,14.9821261 C112.468475,15.7036061 113.141371,16.2424329 113.924879,16.5986066 C114.708387,16.9547803 115.726948,17.3155203 116.980562,17.6808266 C117.902336,17.9365411 118.625929,18.1694239 119.151341,18.379475 C119.676752,18.5895261 120.114595,18.8772049 120.464869,19.2425112 C120.815144,19.6078176 120.990281,20.0735831 120.990281,20.639808 C120.990281,21.33389 120.732184,21.8955485 120.21599,22.3247834 C119.699796,22.7540184 118.99003,22.9686358 118.086691,22.9686358 C117.201788,22.9686358 116.505848,22.7403194 115.998872,22.2836865 C115.491896,21.8270535 115.210755,21.2060328 115.155448,20.4206242 L115.155448,20.4206242 L111.007463,20.4206242 C111.025898,21.5896044 111.348519,22.6033295 111.975326,23.4617994 C112.602133,24.3202693 113.454774,24.9778207 114.53325,25.4344536 C115.611726,25.8910865 116.82386,26.119403 118.169651,26.119403 Z" fill="#6A7582" fill-rule="nonzero"></path>
                </g>
            </g>
        </g>
    </g>
</svg>