<?xml version="1.0" encoding="UTF-8"?>
<svg id="Layer_1" xmlns="http://www.w3.org/2000/svg" version="1.1" viewBox="0 0 536.77 147.99">
  <!-- Generator: Adobe Illustrator 30.0.0, SVG Export Plug-In . SVG Version: 2.1.1 Build 123)  -->
  <defs>
    <style>
      .st0 {
        fill: #4e68ff;
      }

      .st1 {
        fill: #00f6b6;
      }
    </style>
  </defs>
  <g>
    <path class="st0" d="M90.99,145.99c39.77-9.39,64.39-49.23,55.01-88.99C136.61,17.23,96.76-7.39,57,2,17.23,11.38-7.39,51.23,2,90.99c9.39,39.76,49.24,64.39,89,55Z"/>
    <path class="st1" d="M146,57c-1.34-5.69-3.31-11.06-5.81-16.08l-.02.02-46.59,43.07c-2.91,2.69-7.24,3.16-10.66,1.15l-19.8-11.6c-3.2-1.87-7.22-1.59-10.12.71-12.26,9.71-43.67,34.55-44.12,34.91,15.49,28.72,48.82,44.68,82.11,36.81,39.77-9.39,64.39-49.23,55.01-88.99Z"/>
  </g>
  <g>
    <path d="M244.63,114.82v-8.42c-1.06,1.82-2.64,3.45-4.72,4.89-2.09,1.44-4.59,2.6-7.51,3.47-2.92.87-6.16,1.31-9.72,1.31-7.05,0-13.36-1.76-18.93-5.29-5.57-3.53-9.95-8.43-13.13-14.73-3.18-6.29-4.78-13.53-4.78-21.72,0-6.21.93-11.9,2.79-17.06,1.86-5.16,4.47-9.63,7.85-13.42,3.37-3.79,7.37-6.73,12-8.81,4.62-2.08,9.67-3.13,15.12-3.13,8.34,0,15.3,2.1,20.87,6.31,5.57,4.21,9.61,9.91,12.11,17.12l-13.87,4.66c-1.21-4.85-3.45-8.6-6.71-11.26-3.26-2.65-7.35-3.98-12.28-3.98-4.55,0-8.59,1.21-12.11,3.64-3.53,2.43-6.27,5.84-8.24,10.23-1.97,4.4-2.96,9.55-2.96,15.47s.98,10.97,2.96,15.41c1.97,4.43,4.74,7.89,8.3,10.35,3.56,2.47,7.66,3.7,12.28,3.7,3.94,0,7.39-.87,10.35-2.62,2.96-1.74,5.27-4.11,6.94-7.11,1.67-2.99,2.58-6.43,2.73-10.29h-21.49v-12.74h35.48v44.01h-13.3Z"/>
    <path d="M307.17,54.1v13.64c-.84-.15-1.63-.25-2.39-.29-.76-.04-1.63-.06-2.62-.06-2.88,0-5.48.62-7.79,1.85-2.31,1.24-4.13,3-5.46,5.28-1.33,2.28-1.99,5.05-1.99,8.29v32h-13.65v-59.7h13.65v8.1c1.29-2.85,3.39-5.12,6.31-6.81,2.92-1.69,6.27-2.54,10.06-2.54.83,0,1.55.02,2.16.06.61.04,1.17.1,1.71.17Z"/>
    <path d="M368.69,84.97c0,6.15-1.23,11.56-3.7,16.24-2.46,4.67-5.86,8.32-10.18,10.94-4.32,2.62-9.29,3.93-14.9,3.93s-10.58-1.31-14.9-3.93c-4.32-2.62-7.72-6.27-10.18-10.94-2.46-4.67-3.7-10.08-3.7-16.24s1.23-11.66,3.7-16.29c2.46-4.63,5.86-8.26,10.18-10.88,4.32-2.62,9.29-3.93,14.9-3.93s10.58,1.31,14.9,3.93c4.32,2.62,7.71,6.25,10.18,10.88,2.46,4.63,3.7,10.06,3.7,16.29ZM324.91,84.97c0,4.03.61,7.53,1.82,10.49,1.21,2.97,2.96,5.23,5.23,6.79,2.27,1.56,4.93,2.34,7.96,2.34s5.78-.78,8.02-2.34c2.24-1.56,3.96-3.82,5.17-6.79,1.21-2.96,1.82-6.46,1.82-10.49s-.61-7.62-1.82-10.55c-1.21-2.93-2.94-5.17-5.17-6.73-2.24-1.56-4.91-2.34-8.02-2.34s-5.69.78-7.96,2.34c-2.27,1.56-4.02,3.8-5.23,6.73-1.21,2.93-1.82,6.45-1.82,10.55Z"/>
    <path d="M407.7,55.12h11.26l10.69,39.57,10.58-39.57h13.53l-17.97,59.7h-11.83l-10.92-39.12-10.92,39.12h-11.83l-17.97-59.7h13.99l10.8,39.57,10.58-39.57Z"/>
    <path d="M490.71,55.12h11.26l10.69,39.57,10.58-39.57h13.53l-17.97,59.7h-11.83l-10.92-39.12-10.92,39.12h-11.83l-17.97-59.7h13.99l10.8,39.57,10.58-39.57Z"/>
  </g>
</svg>