<?xml version="1.0" encoding="UTF-8"?>
<svg xmlns="http://www.w3.org/2000/svg" xmlns:xlink="http://www.w3.org/1999/xlink" width="238pt" height="45pt" viewBox="0 0 238 45" version="1.1">
<defs>
<clipPath id="clip1">
  <path d="M 224 14 L 237.640625 14 L 237.640625 38 L 224 38 Z M 224 14 "/>
</clipPath>
</defs>
<g id="surface1">
<path style=" stroke:none;fill-rule:evenodd;fill:rgb(94.901961%,43.529412%,12.941176%);fill-opacity:1;" d="M 22.453125 0 C 34.855469 0 44.90625 10.074219 44.90625 22.5 C 44.90625 34.925781 34.855469 45 22.453125 45 C 10.050781 45 0 34.925781 0 22.5 C 0 10.074219 10.050781 0 22.453125 0 Z M 22.453125 0 "/>
<path style=" stroke:none;fill-rule:evenodd;fill:rgb(100%,100%,100%);fill-opacity:1;" d="M 22.453125 42.75 L 26.453125 37.25 L 18.453125 37.25 Z M 22.453125 37.25 L 23.015625 36.148438 L 24.640625 32.988281 L 20.273438 32.988281 Z M 22.453125 16.289062 L 24.542969 16.289062 L 23.28125 13.707031 L 22.453125 12.007812 L 20.359375 16.289062 Z M 22.453125 12.007812 L 25.214844 12.007812 L 22.453125 6.667969 L 19.691406 12.007812 Z M 22.453125 6.667969 L 25.835938 6.667969 L 22.453125 2.25 L 19.070312 6.667969 Z M 31.367188 37.25 L 26.453125 37.25 L 29.550781 32.988281 Z M 41.972656 27.757812 L 33.359375 27.757812 L 37.554688 21.980469 Z M 33.359375 27.757812 L 36.0625 32.988281 L 29.554688 32.988281 Z M 33.199219 16.289062 L 41.695312 16.289062 L 37.554688 21.980469 Z M 33.199219 16.289062 L 29.921875 12.007812 L 35.394531 12.007812 Z M 25.214844 12.007812 L 29.921875 12.007812 L 27.4375 16.289062 Z M 29.921875 12.007812 L 25.835938 6.667969 L 33.007812 6.667969 Z M 22.453125 32.984375 L 24.84375 27.757812 L 20.070312 27.757812 L 21.910156 31.792969 Z M 22.453125 24.9375 L 22.746094 24.429688 L 24.570312 21.269531 L 20.332031 21.269531 Z M 22.453125 19.015625 L 23.613281 19.015625 L 22.453125 16.289062 L 21.292969 19.015625 Z M 24.640625 32.988281 L 27.328125 27.757812 L 29.554688 32.988281 Z M 27.320312 27.757812 L 24.84375 27.757812 L 26.128906 24.9375 L 27.324219 27.757812 Z M 25.484375 23.414062 L 26.132812 24.9375 L 24.421875 24.9375 Z M 27.40625 22.152344 L 28.765625 24.9375 L 26.132812 24.9375 Z M 28.84375 19.015625 L 27.40625 22.152344 L 26.976562 21.269531 L 25.875 19.015625 Z M 30.328125 21.894531 L 33.359375 27.757812 L 27.328125 27.757812 L 28.765625 24.9375 Z M 33.199219 16.289062 L 30.328125 21.894531 L 27.4375 16.289062 Z M 25.875 19.015625 L 24.542969 16.289062 L 27.4375 16.289062 Z M 25.875 19.015625 L 24.570312 21.269531 L 23.613281 19.015625 Z M 25.484375 23.414062 L 24.570312 21.269531 L 26.976562 21.269531 Z M 13.542969 37.25 L 18.453125 37.25 L 15.355469 32.988281 Z M 2.933594 27.757812 L 11.546875 27.757812 L 7.351562 21.980469 Z M 11.546875 27.757812 L 8.84375 32.988281 L 15.351562 32.988281 Z M 11.707031 16.289062 L 3.210938 16.289062 L 7.351562 21.980469 Z M 11.707031 16.289062 L 14.984375 12.007812 L 9.515625 12.007812 Z M 19.691406 12.007812 L 14.988281 12.007812 L 17.46875 16.289062 Z M 14.988281 12.007812 L 19.074219 6.667969 L 11.902344 6.667969 Z M 22.453125 27.757812 L 22.023438 27.144531 L 20.488281 24.9375 L 24.414062 24.9375 Z M 20.269531 32.988281 L 17.582031 27.757812 L 15.355469 32.988281 Z M 17.585938 27.757812 L 20.0625 27.757812 L 18.777344 24.9375 L 17.582031 27.757812 Z M 19.425781 23.414062 L 18.777344 24.9375 L 20.488281 24.9375 Z M 17.5 22.152344 L 16.140625 24.9375 L 18.773438 24.9375 Z M 16.066406 19.015625 L 17.503906 22.152344 L 17.933594 21.269531 L 19.035156 19.015625 Z M 14.582031 21.894531 L 11.550781 27.757812 L 17.582031 27.757812 L 16.144531 24.9375 Z M 11.707031 16.289062 L 14.578125 21.894531 L 17.464844 16.289062 Z M 19.03125 19.015625 L 20.359375 16.289062 L 17.464844 16.289062 Z M 19.03125 19.015625 L 20.332031 21.269531 L 21.292969 19.015625 Z M 19.425781 23.414062 L 20.335938 21.269531 L 17.933594 21.269531 Z M 19.425781 23.414062 "/>
<path style=" stroke:none;fill-rule:evenodd;fill:rgb(14.117647%,12.54902%,33.72549%);fill-opacity:1;" d="M 107.421875 7.648438 L 102.511719 7.648438 C 101.015625 7.648438 99.789062 8.875 99.789062 10.375 L 99.789062 37.347656 C 104.527344 37.347656 109.269531 37.347656 114.011719 37.347656 C 115.488281 37.347656 116.695312 36.136719 116.695312 34.660156 L 116.695312 29.699219 L 107.421875 29.699219 Z M 58.148438 7.648438 L 53.316406 7.648438 C 51.777344 7.648438 50.515625 8.914062 50.515625 10.457031 L 50.515625 37.347656 L 55.34375 37.347656 C 56.886719 37.347656 58.148438 36.082031 58.148438 34.539062 Z M 79.195312 7.648438 L 95.558594 7.648438 L 95.558594 12.613281 C 95.558594 14.089844 94.351562 15.296875 92.875 15.296875 L 84.105469 15.296875 L 84.105469 19.109375 L 93.636719 19.109375 L 93.636719 24.070312 C 93.636719 25.550781 92.429688 26.757812 90.953125 26.757812 L 84.105469 26.757812 L 84.105469 34.621094 C 84.105469 36.121094 82.882812 37.347656 81.382812 37.347656 L 76.472656 37.347656 L 76.472656 10.378906 C 76.472656 8.875 77.695312 7.648438 79.195312 7.648438 Z M 71.128906 7.648438 L 66.296875 7.648438 C 64.757812 7.648438 63.496094 8.914062 63.496094 10.457031 L 63.496094 37.347656 L 68.324219 37.347656 C 69.867188 37.347656 71.128906 36.082031 71.128906 34.539062 Z M 71.128906 7.648438 "/>
<path style=" stroke:none;fill-rule:nonzero;fill:rgb(14.117647%,12.54902%,33.72549%);fill-opacity:1;" d="M 201.632812 37.351562 C 201.28125 37.351562 200.972656 37.28125 200.707031 37.148438 L 200.703125 37.148438 C 200.394531 36.996094 200.160156 36.765625 200 36.453125 L 192.792969 22.847656 L 192.792969 36.289062 C 192.792969 36.871094 192.316406 37.351562 191.730469 37.351562 L 189.648438 37.351562 C 189.066406 37.351562 188.585938 36.875 188.585938 36.289062 L 188.585938 15.929688 C 188.585938 15.347656 189.0625 14.867188 189.648438 14.867188 L 191.851562 14.867188 C 192.402344 14.867188 192.8125 14.953125 193.082031 15.125 C 193.21875 15.210938 193.34375 15.324219 193.460938 15.460938 C 193.558594 15.578125 193.648438 15.710938 193.730469 15.859375 L 193.734375 15.875 L 200.859375 29.339844 L 200.859375 15.929688 C 200.859375 15.347656 201.335938 14.867188 201.917969 14.867188 C 202.613281 14.867188 203.308594 14.867188 204.003906 14.867188 C 204.585938 14.867188 205.066406 15.34375 205.066406 15.929688 L 205.066406 36.289062 C 205.066406 36.871094 204.589844 37.351562 204.003906 37.351562 C 203.214844 37.351562 202.421875 37.351562 201.632812 37.351562 Z M 201.632812 37.351562 "/>
<path style=" stroke:none;fill-rule:nonzero;fill:rgb(14.117647%,12.54902%,33.72549%);fill-opacity:1;" d="M 162.097656 37.351562 C 161.746094 37.351562 161.4375 37.28125 161.171875 37.148438 L 161.167969 37.148438 C 160.859375 36.996094 160.625 36.765625 160.464844 36.453125 L 153.257812 22.84375 L 153.257812 36.285156 C 153.257812 36.867188 152.78125 37.347656 152.195312 37.347656 L 150.113281 37.347656 C 149.53125 37.347656 149.050781 36.871094 149.050781 36.285156 L 149.050781 15.929688 C 149.050781 15.347656 149.527344 14.867188 150.113281 14.867188 L 152.316406 14.867188 C 152.867188 14.867188 153.277344 14.953125 153.546875 15.125 C 153.683594 15.210938 153.808594 15.324219 153.925781 15.460938 C 154.023438 15.578125 154.113281 15.710938 154.195312 15.859375 L 154.199219 15.875 L 161.324219 29.339844 L 161.324219 15.929688 C 161.324219 15.347656 161.796875 14.867188 162.382812 14.867188 C 163.078125 14.867188 163.777344 14.867188 164.46875 14.867188 C 165.050781 14.867188 165.53125 15.34375 165.53125 15.929688 L 165.53125 36.289062 C 165.53125 36.871094 165.054688 37.351562 164.46875 37.351562 C 163.679688 37.351562 162.886719 37.351562 162.097656 37.351562 Z M 162.097656 37.351562 "/>
<g clip-path="url(#clip1)" clip-rule="nonzero">
<path style=" stroke:none;fill-rule:evenodd;fill:rgb(14.117647%,12.54902%,33.72549%);fill-opacity:1;" d="M 228.613281 14.867188 L 236.578125 14.867188 C 237.160156 14.867188 237.640625 15.34375 237.640625 15.929688 L 237.640625 18.019531 C 237.640625 18.605469 237.164062 19.085938 236.578125 19.085938 L 229.699219 19.085938 C 229.066406 19.085938 228.546875 19.605469 228.546875 20.238281 L 228.546875 24.003906 L 236.578125 24.003906 C 237.160156 24.003906 237.640625 24.480469 237.640625 25.066406 L 237.640625 27.15625 C 237.640625 27.738281 237.164062 28.21875 236.578125 28.21875 L 228.546875 28.21875 L 228.546875 31.980469 C 228.546875 32.617188 229.0625 33.136719 229.699219 33.136719 L 236.578125 33.136719 C 237.160156 33.136719 237.640625 33.613281 237.640625 34.203125 L 237.640625 36.289062 C 237.640625 36.875 237.164062 37.355469 236.578125 37.355469 L 228.613281 37.355469 C 226.261719 37.355469 224.339844 35.429688 224.339844 33.074219 L 224.339844 19.148438 C 224.339844 16.796875 226.261719 14.867188 228.613281 14.867188 Z M 228.613281 14.867188 "/>
</g>
<path style=" stroke:none;fill-rule:evenodd;fill:rgb(14.117647%,12.54902%,33.72549%);fill-opacity:1;" d="M 129.839844 14.867188 L 137.804688 14.867188 C 138.386719 14.867188 138.867188 15.34375 138.867188 15.929688 L 138.867188 18.019531 C 138.867188 18.605469 138.390625 19.085938 137.804688 19.085938 L 130.925781 19.085938 C 130.292969 19.085938 129.773438 19.605469 129.773438 20.238281 L 129.773438 24.003906 L 137.804688 24.003906 C 138.386719 24.003906 138.867188 24.480469 138.867188 25.066406 L 138.867188 27.15625 C 138.867188 27.738281 138.390625 28.21875 137.804688 28.21875 L 129.773438 28.21875 L 129.773438 36.289062 C 129.773438 36.875 129.292969 37.355469 128.710938 37.355469 L 126.625 37.355469 C 126.042969 37.355469 125.5625 36.875 125.5625 36.289062 L 125.5625 19.148438 C 125.566406 16.796875 127.488281 14.867188 129.839844 14.867188 Z M 129.839844 14.867188 "/>
<path style=" stroke:none;fill-rule:evenodd;fill:rgb(14.117647%,12.54902%,33.72549%);fill-opacity:1;" d="M 173.652344 16.761719 L 168.144531 36.128906 C 167.953125 36.804688 168.390625 37.351562 169.121094 37.351562 L 170.683594 37.351562 C 171.410156 37.351562 172.164062 36.800781 172.355469 36.128906 L 173.859375 30.824219 L 180.335938 30.824219 L 181.84375 36.128906 C 182.035156 36.804688 182.785156 37.351562 183.515625 37.351562 L 185.078125 37.351562 C 185.804688 37.351562 186.242188 36.800781 186.050781 36.128906 L 180.542969 16.761719 C 179.800781 14.140625 174.382812 14.195312 173.652344 16.761719 Z M 179.140625 26.609375 L 175.058594 26.609375 L 177.097656 19.433594 Z M 179.140625 26.609375 "/>
<path style=" stroke:none;fill-rule:evenodd;fill:rgb(14.117647%,12.54902%,33.72549%);fill-opacity:1;" d="M 141.832031 15.929688 L 141.832031 36.289062 C 141.832031 36.871094 142.308594 37.351562 142.894531 37.351562 L 144.980469 37.351562 C 145.5625 37.351562 146.039062 36.875 146.039062 36.289062 L 146.039062 15.929688 C 146.039062 15.347656 145.5625 14.867188 144.980469 14.867188 L 142.894531 14.867188 C 142.308594 14.867188 141.832031 15.347656 141.832031 15.929688 Z M 141.832031 15.929688 "/>
<path style=" stroke:none;fill-rule:evenodd;fill:rgb(14.117647%,12.54902%,33.72549%);fill-opacity:1;" d="M 220.3125 14.867188 L 216.097656 14.867188 C 216.078125 14.867188 216.054688 14.867188 216.035156 14.871094 L 215.824219 14.867188 C 215.136719 14.863281 214.449219 14.941406 213.777344 15.097656 C 213.046875 15.261719 212.351562 15.542969 211.699219 15.925781 C 210.992188 16.335938 210.378906 16.902344 209.859375 17.570312 C 209.261719 18.339844 208.855469 19.261719 208.570312 20.210938 C 208.207031 21.417969 208.078125 22.734375 208.078125 24 L 208.078125 28.214844 C 208.078125 29.46875 208.207031 30.769531 208.570312 31.960938 C 208.855469 32.910156 209.265625 33.832031 209.859375 34.59375 C 210.382812 35.261719 210.992188 35.832031 211.699219 36.253906 C 212.351562 36.644531 213.046875 36.933594 213.777344 37.105469 C 214.449219 37.261719 215.136719 37.355469 215.828125 37.347656 L 216.039062 37.34375 C 216.058594 37.34375 216.082031 37.347656 216.105469 37.347656 L 220.320312 37.347656 C 220.902344 37.347656 221.382812 36.871094 221.382812 36.285156 L 221.382812 34.195312 C 221.382812 33.613281 220.90625 33.132812 220.320312 33.132812 L 216.101562 33.132812 C 216.085938 33.132812 216.070312 33.132812 216.050781 33.132812 L 215.859375 33.132812 C 215.226562 33.140625 214.617188 33.101562 214.058594 32.765625 C 213.496094 32.429688 213.121094 31.863281 212.859375 31.234375 C 212.484375 30.328125 212.386719 29.199219 212.386719 28.214844 L 212.386719 24 C 212.386719 23.191406 212.445312 22.320312 212.660156 21.542969 C 213.144531 19.773438 214.183594 19.074219 215.859375 19.085938 L 220.3125 19.085938 C 220.894531 19.085938 221.375 18.605469 221.375 18.019531 L 221.375 15.933594 C 221.375 15.347656 220.898438 14.867188 220.3125 14.867188 Z M 220.3125 14.867188 "/>
</g>
</svg>
