<?xml version="1.0" encoding="UTF-8"?>
<svg id="Layer_1" xmlns="http://www.w3.org/2000/svg" version="1.1" viewBox="0 0 800 183.64">
  <!-- Generator: Adobe Illustrator 29.7.0, SVG Export Plug-In . SVG Version: 2.1.1 Build 138)  -->
  <defs>
    <style>
      .st0 {
        fill: #eb2027;
      }

      .st1 {
        fill: #003974;
      }

      .st2 {
        fill: #fff;
      }

      .st3 {
        fill: #ec1c24;
      }
    </style>
  </defs>
  <path class="st1" d="M6.08,91.82C6.08,44.92,50.2,6.91,104.68,6.91s98.59,38,98.59,84.91-44.11,84.91-98.59,84.91S6.08,138.72,6.08,91.82"/>
  <polygon class="st0" points="92.72 34.15 115.64 26.58 115.7 150.55 92.65 158.32 92.72 34.15"/>
  <path class="st2" d="M106.34,111.49c-9.97,12.02-19.6,24.32-37.6,24.32-25.45,0-37.54-24.65-37.54-45.24s9.43-43.25,34.21-43.25c10.76,0,21.13,6.58,27.24,13.55v16.81c-5.18-3.45-16.74-6.91-24.25-7.04-15.75-.27-29.56,6.58-29.36,22.12.2,10.7,10.76,18,21.26,18,16.14,0,25.91-14.75,34.08-25.98,2.26-2.92,8.7-11.56,9.7-12.89,9.1-12.69,19.6-24.32,37.6-24.32,21.19,0,33.15,17.14,36.54,34.75h-9.57c-3.85-5.71-11.23-9.23-18.6-9.23-16.68,0-26.64,15.35-34.95,26.71,0,0-6.51,8.84-8.84,11.69M178.75,100.32c-2.13,17.74-12.09,35.68-33.75,35.68-12.69,0-22.52-8.64-29.43-19.27v-12.29c8.57,4.25,16.61,8.84,26.31,8.97,11.96.2,22.79-4.45,27.31-13.09h9.57-.01Z"/>
  <g>
    <path class="st3" d="M326.44,121.92c-10.5,0-14.82-8.77-14.82-18.47s4.32-18.6,14.82-18.6,14.82,8.7,14.82,18.6-4.32,18.47-14.82,18.47M326.44,137.86c21.72,0,38.33-12.69,38.33-34.48s-16.54-34.61-38.33-34.61-38.33,12.69-38.33,34.61,16.54,34.48,38.33,34.48"/>
    <path class="st3" d="M363.51,86.31h13.02v26.84c0,15.68,4.92,24.71,25.31,24.71,5.71,0,9.97-.73,14.28-1.26l-.73-14.82c-2.26.4-4.65.86-6.98.86-7.24,0-9.1-4.05-9.1-12.02v-24.32h15.94v-15.94h-15.94v-22.85l-22.39,7.97v14.82h-13.42v15.94h0v.07h.01Z"/>
    <polygon class="st3" points="498.11 136.4 520.83 136.4 520.83 103.71 521.1 103.71 539.3 136.4 566.94 136.4 542.09 100.66 565.01 70.36 540.1 70.36 521.1 98.13 520.83 98.13 520.83 47.64 498.11 55.55 498.11 136.4"/>
    <polygon class="st3" points="226.39 136.4 249.11 136.4 249.11 103.71 249.37 103.71 267.58 136.4 295.15 136.4 270.37 100.66 293.29 70.36 268.37 70.36 249.37 98.13 249.11 98.13 249.11 47.64 226.39 55.15 226.39 136.4"/>
    <path class="st3" d="M442.64,115.54c0-6.44,6.18-8.84,13.95-8.84,3.45,0,6.78.27,9.7.4,0,7.84-5.51,15.75-14.22,15.75-5.38,0-9.5-2.66-9.5-7.31M489.08,136.66c-1-5.25-1.26-10.5-1.26-15.75v-24.85c0-20.4-14.75-27.7-31.76-27.7-9.83,0-18.47,1.4-26.64,4.72l.4,15.68c6.38-3.59,13.82-4.98,21.26-4.98,8.3,0,15.08,2.46,15.21,11.56-2.92-.53-7.04-.86-10.76-.86-12.29,0-34.41,2.46-34.41,22.85,0,14.48,11.76,21.06,24.98,21.06,9.5,0,15.88-3.72,21.13-12.02h.27c0,3.45.4,6.91.53,10.5h21.13v-.2h-.08Z"/>
  </g>
  <g>
    <path class="st1" d="M606.4,72.22l.56,9.84c4.7-7.26,11.8-10.9,21.3-10.9,5.2,0,9.37.95,12.5,2.85,3.14,1.9,5.45,4.41,6.93,7.52,1.49,3.12,2.46,6.54,2.91,10.28.45,3.74.68,8.26.68,13.59v28.79h-11.39v-27.92c0-4.46-.07-7.71-.22-9.75-.15-2.04-.4-3.85-.77-5.42-.87-3.3-2.44-5.82-4.7-7.55-2.27-1.73-5.1-2.6-8.48-2.6-3.8,0-7.18,1.14-10.15,3.4-2.97,2.27-5.06,5.37-6.25,9.29-.37,1.11-.67,2.41-.9,3.9-.23,1.49-.36,3.1-.4,4.83-.04,1.73-.06,4.77-.06,9.1v22.72h-11.51v-30.58c-.08-3.51-.14-6.74-.19-9.69-.04-2.95-.11-6.44-.22-10.46-.1-4.02-.24-7.77-.4-11.24h10.77,0Z"/>
    <path class="st1" d="M675.74,106.14c.83,6.15,3.08,11.01,6.78,14.58,3.69,3.57,8.33,5.35,13.9,5.35,3.3,0,6.52-.47,9.66-1.42,3.14-.95,6.38-2.41,9.72-4.4v11.02c-3.76,1.65-7.16,2.83-10.21,3.53-3.05.7-6.27,1.05-9.66,1.05-4.79,0-9.14-.78-13.06-2.35s-7.26-3.82-10.03-6.75c-2.76-2.93-4.89-6.47-6.38-10.62s-2.23-8.7-2.23-13.65c0-6.31,1.2-11.89,3.59-16.71,2.39-4.83,5.83-8.57,10.31-11.24,4.48-2.66,9.56-3.99,15.26-3.99,6.69,0,12.02,1.64,16,4.92s6.81,7.6,8.48,12.97,2.51,11.27,2.51,17.7h-44.64ZM675.86,97.16h33c-.41-3.38-1.2-6.37-2.35-8.95-1.16-2.58-2.87-4.65-5.14-6.22s-5.06-2.35-8.36-2.35c-4.54,0-8.33,1.56-11.36,4.67-3.03,3.12-4.96,7.4-5.79,12.85h0Z"/>
    <path class="st1" d="M793.92,103.36c0,6.27-1.35,11.89-4.06,16.84s-6.51,8.8-11.4,11.55c-4.9,2.74-10.4,4.12-16.51,4.12s-11.44-1.39-16.24-4.18c-4.79-2.79-8.55-6.69-11.28-11.7-2.73-5.01-4.09-10.56-4.09-16.62,0-4.79.77-9.17,2.32-13.16,1.55-3.98,3.76-7.45,6.63-10.4,2.87-2.95,6.26-5.23,10.16-6.84,3.9-1.61,8.11-2.41,12.61-2.41s8.78.78,12.7,2.35,7.33,3.84,10.22,6.81c2.89,2.97,5.1,6.48,6.63,10.52,1.53,4.05,2.29,8.42,2.29,13.12h.02ZM781.72,103.64c0-3.39-.49-6.59-1.46-9.61-.97-3.02-2.33-5.59-4.09-7.72-1.75-2.13-3.82-3.77-6.19-4.93s-4.96-1.74-7.77-1.74c-5.65,0-10.35,2.23-14.08,6.69-3.74,4.46-5.6,10.1-5.6,16.92,0,4.5.84,8.55,2.51,12.15s4,6.38,7,8.37c2.99,1.98,6.39,2.98,10.18,2.98s7-.98,9.97-2.94,5.3-4.72,7-8.27c1.69-3.55,2.54-7.52,2.54-11.9h0Z"/>
  </g>
</svg>