<svg xmlns="http://www.w3.org/2000/svg" viewBox="0 0 300 90.192" width="578px" height="173px"><g fill-rule="evenodd"><path d="M0 45.096C0 20.192 23.474 0 52.434 0s52.432 20.192 52.432 45.096-23.474 45.096-52.432 45.096S0 70.003 0 45.096" fill="#003874"/><g fill="#ed1c24"><path d="M46.067 14.483l12.182-4.025.06 65.853-12.285 4.116.044-65.944m126.716 56.682c11.707 0 20.623-6.808 20.623-18.524 0-11.78-8.916-18.6-20.623-18.6-11.7 0-20.617 6.8-20.617 18.6 0 11.717 8.916 18.524 20.617 18.524zm0-8.578c-5.646 0-7.957-4.7-7.957-9.946 0-5.315 2.3-10 7.957-10s7.963 4.694 7.963 10c0 5.246-2.3 9.946-7.963 9.946m19.498-19.14h7v14.44c0 8.44 2.654 13.278 13.606 13.278 3.063 0 5.38-.4 7.7-.68l-.4-7.966c-1.224.203-2.517.475-3.74.475-3.88 0-4.903-2.18-4.903-6.47V43.447h8.575v-8.58h-8.575l-.003-12.27-12.038 4.3v7.97h-7.214v8.58m70.7 26.903h12.25V52.78h.134l9.802 17.57H300l-13.34-19.205 12.316-16.276h-13.403l-10.208 14.914h-.134v-27.14L262.98 26.9v43.46"/><path d="M119.55 70.35h12.254V52.78h.134l9.802 17.57h14.833l-13.34-19.205L155.55 34.87h-13.403L131.94 49.784h-.134v-27.14l-12.254 4.04V70.35m139.08.165c-.553-2.823-.7-5.65-.7-8.478v-13.37c0-10.96-7.923-14.9-17.082-14.9-5.302 0-9.918.756-14.324 2.55l.2 8.407c3.438-1.927 7.435-2.7 11.43-2.7 4.478 0 8.125 1.312 8.194 6.205a36.35 36.35 0 0 0-5.783-.481c-6.6 0-18.524 1.312-18.524 12.27 0 7.788 6.336 11.3 13.428 11.3 5.096 0 8.538-2 11.364-6.477H247c0 1.86.206 3.722.275 5.65h11.367zm-25.004-11.37c0-3.448 3.307-4.756 7.507-4.756 1.86 0 3.654.137 5.234.206 0 4.206-2.96 8.475-7.64 8.475-2.895 0-5.1-1.446-5.1-3.925"/></g><path d="M91.866 49.636c-1.143 9.42-6.427 18.937-17.965 18.955-6.736.012-11.998-4.6-15.642-10.243v-6.536c4.56 2.264 8.822 4.694 13.993 4.768 6.37.094 12.13-2.355 14.512-6.945h5.103zm-38.57 5.915c-5.293 6.38-10.408 12.897-19.992 12.897-13.537 0-19.958-13.088-19.958-24.03 0-10.514 5.018-22.96 18.206-22.96 5.72 0 11.226 3.498 14.508 7.198l-.01 8.925c-2.742-1.846-8.884-3.657-12.894-3.722-8.363-.14-15.736 3.485-15.608 11.74.087 5.683 5.718 9.546 11.32 9.546 8.58 0 13.778-7.838 18.122-13.787a490.38 490.38 0 0 0 5.165-6.858c4.825-6.742 10.408-12.897 19.992-12.897 11.29 0 17.628 9.1 19.42 18.468h-5.1c-2.05-3.038-5.993-4.897-9.877-4.897-8.87 0-14.17 8.16-18.606 14.168l-4.7 6.208" fill="#fff"/></g><path d="M119.573 48.56l.114-21.96 5.74-1.886 6.066-1.89c.18-.002.377 6.01.442 13.356l.117 13.36 10.092-14.795h6.547c3.6 0 6.547.142 6.547.315s-2.692 3.856-5.983 8.183l-5.983 7.868 6.34 9.15 6.672 9.703c.26.433-1.27.552-7.092.552h-7.425l-9.712-17.444-.24 17.444h-12.355l.114-21.96z" opacity="0" stroke="#000" stroke-width=".04"/></svg>