<svg width="160" height="64" viewBox="0 0 160 64" fill="none" xmlns="http://www.w3.org/2000/svg">
<path d="M81.7279 53.9872C81.7279 60.0191 77.2226 64.0696 71.2221 63.9991C65.353 63.9298 61.0547 59.8603 61.0547 53.9872C61.0547 48.1602 65.2741 44.0094 71.308 43.9754C77.4091 43.9401 81.7279 48.0846 81.7279 53.9872ZM68.578 59.8231C68.7305 61.0931 69.0158 61.987 69.4326 62.5055C70.2802 63.5606 72.5031 63.5606 73.3507 62.5055C73.7668 61.987 74.0521 61.0931 74.2047 59.8231C74.3573 58.5532 74.4342 56.6079 74.4342 53.9872C74.4342 51.366 74.3573 49.4213 74.2047 48.152C74.0521 46.882 73.7668 45.9881 73.3507 45.4696C72.5024 44.4145 70.2808 44.4145 69.4326 45.4696C69.0158 45.9881 68.7305 46.882 68.578 48.152C68.4254 49.4213 68.3491 51.366 68.3491 53.9872C68.3491 56.6079 68.4254 58.5532 68.578 59.8231Z" fill="#2E2A94"/>
<path d="M97.2071 55.0917C97.8746 56.157 98.2073 57.2487 98.2073 58.3675C98.2073 59.5423 97.8322 60.6208 97.0821 61.6035C94.5021 64.8459 86.5666 64.0799 83.4942 62.1762V56.894H84.0366C84.2867 57.8761 84.7239 58.8601 85.3491 59.8422C85.9742 60.8255 86.766 61.6445 87.7252 62.2996C92.2222 65.3732 96.1236 60.8797 91.3303 57.672L87.1205 55.1736C85.8703 54.3824 84.9047 53.4878 84.2238 52.4913C83.5429 51.4947 83.2031 50.4786 83.2031 49.4404C83.2031 48.2668 83.6333 47.1744 84.4944 46.164C86.6852 43.7733 91.7471 43.9371 94.6438 44.5053C95.8248 44.7384 96.7346 45.0175 97.3738 45.3451V49.7277H96.832C96.4711 48.3355 95.7273 47.1474 94.6028 46.164C90.3981 42.4939 84.4931 46.3177 90.2051 49.8499L94.4149 52.4301C95.6094 53.1407 96.5403 54.0271 97.2071 55.0917Z" fill="#2E2A94"/>
<path d="M130.391 45.4904C129.863 45.8048 129.3 46.4391 128.703 47.3948C128.105 48.3504 127.459 49.7432 126.765 51.5714L122.18 63.8164H120.804L115.011 51.4082L110.551 63.8164H109.093L101.298 47.1894C100.854 46.3169 100.395 45.743 99.9228 45.4703C99.4503 45.1975 98.9502 45.0469 98.4219 45.0192V44.5279H108.967V45.0192C108.217 45.0192 107.842 45.3877 107.842 46.1254C107.842 46.6716 108.036 47.3267 108.425 48.0909L112.552 56.6085L114.719 50.7934L113.01 47.1894C112.566 46.2892 112.169 45.7096 111.823 45.4495C111.475 45.1899 111.079 45.0469 110.635 45.0192V44.5279H120.804V45.0192C119.971 45.0192 119.554 45.4016 119.554 46.1657C119.554 46.7119 119.748 47.3538 120.138 48.0909L124.222 56.6501L126.182 51.4492C126.459 50.5477 126.598 49.6204 126.598 48.6641C126.598 47.6272 126.368 46.7598 125.91 46.0637C125.451 45.3682 124.667 45.0192 123.556 45.0192V44.5279H132.1V45.0192C131.488 45.0192 130.919 45.1767 130.391 45.4904Z" fill="#2E2A94"/>
<path d="M158.628 61.6229C158.85 62.319 159.308 62.7492 160.003 62.9124V63.4453H150.501V62.9124C151.223 62.7221 151.681 62.2849 151.876 61.6021C152.07 60.9205 152.168 59.9377 152.168 58.6539V37.6456C152.168 36.9356 152.022 36.3964 151.73 36.0278C151.438 35.6593 150.862 35.3254 150 35.025V34.492L158.295 32.8951V58.6539C158.295 59.9377 158.405 60.9268 158.628 61.6229Z" fill="#2E2A94"/>
<path d="M135.475 58.665C135.475 61.7234 138.866 62.4762 140.068 59.5248V53.6279C137.452 54.2188 135.475 55.8547 135.475 58.665ZM134.049 46.4401C135.311 46.653 136.271 47.7327 136.271 49.0323C136.271 49.5583 136.113 50.0485 135.843 50.4598C135.594 50.8573 135.252 51.1754 134.817 51.4161C134.455 51.6082 134.052 51.7027 133.608 51.7027C133.108 51.7027 132.649 51.5805 132.233 51.3342C131.816 51.0891 131.482 50.7477 131.232 50.3105C131.134 50.1322 131.062 49.9407 131.013 49.7347C130.95 49.5117 130.916 49.2761 130.916 49.0323C130.916 48.1932 131.316 47.4461 131.938 46.9642C134.935 43.7086 141.156 42.8191 144.256 46.3998C145.521 47.8606 146.154 49.8607 146.154 52.3994V58.5012C146.154 59.2376 146.32 59.9003 146.654 60.4874C146.988 61.0745 147.487 61.3681 148.154 61.3681C148.404 61.3681 148.648 61.3057 148.884 61.1835C149.119 61.0607 149.28 60.8906 149.363 60.672L149.821 60.917C149.572 61.736 148.973 62.4327 148.03 63.006C145.308 64.6577 140.54 63.9704 140.11 60.3438C139.804 61.3542 139.117 62.194 138.047 62.8623C136.274 63.9698 134.028 64.1437 132.066 63.4564C129.17 62.4415 128.304 58.7752 130.274 56.6378C132.007 54.7586 136.466 53.9208 138.902 53.3412L140.068 53.0546V50.4743C140.068 48.81 139.735 47.4852 139.068 46.5018C137.192 43.7351 133.572 45.6451 134.049 46.4401Z" fill="#2E2A94"/>
<path d="M81.9469 37.1608C82.3771 36.888 82.7176 36.5743 82.9676 36.219L83.426 36.5056C83.0644 37.5709 82.3143 38.5051 81.1762 39.3102C76.978 42.2773 71.1743 40.2488 71.1743 34.2535V21.8239H68.8411L68.7578 21.2337H71.1743V15.7468L77.3005 14.8875V21.2337H82.4675L82.3842 21.8239H77.3005V34.1313C77.3005 35.3049 77.5505 36.1717 78.0506 36.7311C78.5507 37.2905 79.356 37.5709 80.4678 37.5709C81.023 37.5709 81.5154 37.4342 81.9469 37.1608Z" fill="#2E2A94"/>
<path d="M92.7432 38.3065C92.9651 38.9893 93.4235 39.4259 94.1185 39.6168V40.1484H84.6166V39.6168C85.3392 39.4259 85.7976 38.9818 85.9919 38.2857C86.1862 37.5896 86.2836 36.6012 86.2836 35.3173V25.7773C86.2836 25.0957 86.1381 24.5634 85.8464 24.181C85.5546 23.798 84.9776 23.4169 84.1172 23.0339V22.5425L92.4092 20.8643V35.3173C92.4092 36.6283 92.5201 37.6248 92.7432 38.3065ZM88.9091 12.0576C90.7646 12.0576 92.2681 13.5342 92.2681 15.3572C92.2681 17.1797 90.7646 18.6576 88.9091 18.6576C87.0543 18.6576 85.5508 17.1797 85.5508 15.3572C85.5508 13.5342 87.0543 12.0576 88.9091 12.0576Z" fill="#2E2A94"/>
<path d="M104.446 38.3272C104.668 39.0227 105.127 39.453 105.821 39.6168V40.1484H96.3198V39.6168C97.0423 39.4259 97.5008 38.9893 97.6957 38.3065C97.8893 37.6248 97.9868 36.6415 97.9868 35.3583V14.3544C97.9868 13.6444 97.8412 13.1058 97.5495 12.7373C97.2578 12.3688 96.6807 12.0349 95.8203 11.7338V11.2014L104.113 9.6045V35.3583C104.113 36.6415 104.224 37.6305 104.446 38.3272Z" fill="#2E2A94"/>
<path d="M112.996 35.3179C112.996 38.3751 116.387 39.1285 117.59 36.1778V30.282C114.973 30.8723 112.996 32.5089 112.996 35.3179ZM111.572 23.0955C112.833 23.3085 113.793 24.3876 113.793 25.6872C113.793 26.2132 113.636 26.7033 113.364 27.1146C113.116 27.5115 112.773 27.8309 112.339 28.0709C111.978 28.2624 111.574 28.3582 111.13 28.3582C110.631 28.3582 110.172 28.2347 109.755 27.989C109.339 27.7433 109.005 27.4025 108.755 26.9653C108.657 26.7871 108.584 26.5956 108.536 26.3902C108.472 26.1666 108.439 25.931 108.439 25.6872C108.439 24.8481 108.839 24.1016 109.461 23.6197C112.457 20.3647 118.676 19.4752 121.777 23.0558C123.041 24.5161 123.673 26.5156 123.673 29.0536V35.1541C123.673 35.8911 123.84 36.5532 124.174 37.1397C124.508 37.7275 125.006 38.0204 125.674 38.0204C125.923 38.0204 126.167 37.9587 126.403 37.8365C126.638 37.713 126.799 37.5429 126.882 37.3243L127.341 37.57C127.091 38.3889 126.493 39.085 125.549 39.6576C122.828 41.3087 118.061 40.6221 117.631 36.9967C117.324 38.0072 116.637 38.8456 115.569 39.5153C113.797 40.6221 111.551 40.796 109.589 40.1087C106.693 39.0945 105.828 35.4275 107.797 33.2913C109.53 31.4122 113.988 30.5743 116.423 29.9948L117.59 29.7088V27.1291C117.59 25.4648 117.256 24.14 116.589 23.1579C114.714 20.3911 111.094 22.3005 111.572 23.0955Z" fill="#2E2A94"/>
<path d="M136.642 38.3272C136.864 39.0227 137.321 39.453 138.017 39.6168V40.1484H128.516V39.6168C129.238 39.4259 129.695 38.9893 129.891 38.3065C130.085 37.6248 130.182 36.6415 130.182 35.3583V14.3544C130.182 13.6444 130.037 13.1058 129.745 12.7373C129.453 12.3688 128.877 12.0349 128.016 11.7338V11.2014L136.308 9.6045V35.3583C136.308 36.6415 136.419 37.6305 136.642 38.3272Z" fill="#2E2A94"/>
<path d="M68.8725 30.6929C68.8725 36.7234 64.3685 40.7728 58.3692 40.7022C52.5008 40.6336 48.2031 36.5641 48.2031 30.6929C48.2031 24.8677 52.4219 20.7169 58.4545 20.6823C64.5544 20.647 68.8725 24.7915 68.8725 30.6929ZM55.7251 36.5275C55.8777 37.7962 56.163 38.6908 56.5791 39.2086C57.4267 40.2638 59.6489 40.2638 60.4965 39.2086C60.9133 38.6908 61.198 37.7962 61.3512 36.5275C61.5031 35.2582 61.5801 33.3129 61.5801 30.6929C61.5801 28.0729 61.5031 26.1276 61.3512 24.8583C61.198 23.5889 60.9133 22.695 60.4965 22.1765C59.6483 21.1214 57.428 21.1214 56.5791 22.1765C56.163 22.695 55.8777 23.5889 55.7251 24.8583C55.5725 26.1276 55.4962 28.0729 55.4962 30.6929C55.4962 33.3129 55.5725 35.2582 55.7251 36.5275Z" fill="#2E2A94"/>
<path d="M46.2747 38.3065C46.51 39.017 46.9627 39.453 47.6288 39.6168V40.1484H38.1276V39.6168C38.8502 39.4265 39.3086 38.9818 39.5029 38.2857C39.6971 37.5902 39.7946 36.6012 39.7946 35.3173V27.2105C39.7946 24.9458 38.9746 23.8125 37.3364 23.8125C36.7248 23.8125 36.1279 24.079 35.5444 24.61C34.961 25.143 34.5993 25.7509 34.4609 26.4331L34.5025 27.1695V35.3173C34.5025 36.6012 34.6205 37.5971 34.8565 38.3065C35.0924 39.017 35.5444 39.453 36.2112 39.6168V40.1484H26.71V39.6168C27.4319 39.4265 27.891 38.9818 28.0853 38.2857C28.2795 37.5902 28.377 36.6012 28.377 35.3173V27.2105C28.377 26.0639 28.1821 25.2116 27.7935 24.6516C27.4044 24.0922 26.7934 23.8125 25.9599 23.8125C25.3482 23.8125 24.7654 24.072 24.2095 24.5905C23.6536 25.1089 23.3068 25.6683 23.1683 26.2687V35.3589C23.1683 36.6415 23.2786 37.6248 23.501 38.3065C23.7235 38.9893 24.1819 39.4265 24.8763 39.6168V40.1484H15.3751V39.6168C16.097 39.4265 16.549 38.9956 16.7298 38.3272C16.91 37.6576 17.0004 36.6686 17.0004 35.3589V25.9002C17.0004 25.1631 16.8542 24.5974 16.5632 24.2012C16.2721 23.8062 15.7085 23.4169 14.875 23.0339V22.5425L23.1683 20.8643V24.918C25.706 19.5553 33.503 19.2711 34.4192 25.1222C34.8911 23.8944 35.6694 22.8776 36.7523 22.0719C41.0974 18.8453 45.9201 21.4395 45.9201 27.0876V35.3173C45.9201 36.6012 46.0381 37.5971 46.2747 38.3065Z" fill="#2E2A94"/>
<mask id="mask0_7147_13152" style="mask-type:luminance" maskUnits="userSpaceOnUse" x="0" y="0" width="59" height="62">
<path d="M0 30.7636C0 47.727 14.0457 61.5273 31.3099 61.5273C42.3236 61.5273 52.6545 55.7362 58.271 46.4141C58.6294 45.8194 58.4293 45.0528 57.8247 44.7007C57.2195 44.3485 56.4386 44.5457 56.0801 45.1397C50.9195 53.7046 41.4279 59.0252 31.3099 59.0252C15.4492 59.0252 2.54601 46.3474 2.54601 30.7636C2.54601 15.181 15.4492 2.50257 31.3099 2.50257C41.4279 2.50257 50.9195 7.82317 56.0795 16.388C56.4385 16.9833 57.2188 17.1799 57.8241 16.8277C58.4293 16.475 58.6294 15.7083 58.271 15.1136C52.6545 5.79158 42.3236 0.000400543 31.3099 0.000400543C14.0457 0.000400543 0 13.8008 0 30.7636Z" fill="white"/>
</mask>
<g mask="url(#mask0_7147_13152)">
<mask id="mask1_7147_13152" style="mask-type:luminance" maskUnits="userSpaceOnUse" x="-29" y="-27" width="117" height="115">
<path d="M41.0917 -26.3782L87.3033 43.1196L17.5403 87.9023L-28.6719 18.4046L41.0917 -26.3782Z" fill="white"/>
</mask>
<g mask="url(#mask1_7147_13152)">
<path d="M30.6564 61.582V61.519H29.31V61.456H28.4124V61.393H27.7712V61.33H27.3224V61.2671H26.8095V61.2041H26.3607V61.1411H25.976V61.0781H25.6554V61.0151H25.2708V60.9521H24.9502V60.8891H24.6296V60.8261H24.3731V60.7631H24.1167V60.7001H23.8602V60.6371H23.5396V60.5741H23.2832V60.5111H23.0908V60.4481H22.8344V60.3851H22.642V60.3221H22.3856V60.2591H22.1932V60.1961H21.9368V60.1331H21.7444V60.0701H21.6162V60.0071H21.4238V59.9442H21.2315V59.8812H21.0392V59.8182H20.8468V59.7552H20.6545V59.6922H20.4621V59.6292H20.2698V59.5662H20.1415V59.5032H19.9492V59.4402H19.821V59.3772H19.6286V59.3142H19.5004V59.2512H19.3081V59.1882H19.1798V59.1252H18.9875V59.0622H18.8592V58.9992H18.731V58.9362H18.6028V58.8732H18.4746V58.8102H18.2822V58.7472H18.154V58.6842H18.0258V58.6212H17.8975V58.5583H17.7693V58.4953H17.6411V58.4323H17.5128V58.3693H17.3846V58.3063H17.2564V58.2433H17.1281V58.1803H16.9999V58.1173H16.8717V58.0543H16.7435V57.9913H16.6152V57.9283H16.487V57.8653H16.3588V57.8023H16.2305V57.7393H16.1664V57.6763H16.0382V57.6133H15.91V57.5503H15.7817V57.4873H15.7176V57.4243H15.5894V57.3613H15.4612V57.2983H15.3329V57.2354H15.2688V57.1724H15.1406V57.1094H15.0123V57.0464H14.9482V56.9834H14.82V56.9204H14.7559V56.8574H14.6277V56.7944H14.4994V56.7314H14.4353V56.6684H14.3071V56.6054H14.243V56.5424H14.1147V56.4794H14.0506V56.4164H13.9224V56.3534H13.8583V56.2904H13.73V56.2274H13.6659V56.1644H13.5377V56.1014H13.4736V56.0384H13.3454V55.9754H13.2812V55.9124H13.2171V55.8495H13.0889V55.7865H13.0248V55.7235H12.8965V55.6605H12.8324V55.5975H12.7683V55.5345H12.6401V55.4715H12.576V55.4085H12.5119V55.3455H12.3836V55.2825H12.3195V55.2195H12.2554V55.1565H12.1272V55.0935H12.0631V55.0305H11.9989V54.9675H11.9348V54.9045H11.8066V54.8415H11.7425V54.7785H11.6784V54.7155H11.6142V54.6525H11.486V54.5895H11.4219V54.5266H11.3578V54.4636H11.2937V54.4006H11.2296V54.3376H11.1013V54.2746H11.0372V54.2116H10.9731V54.1486H10.909V54.0856H10.8449V54.0226H10.7808V53.9596H10.6525V53.8966H10.5884V53.8336H10.5243V53.7706H10.4602V53.7076H10.3961V53.6446H10.3319V53.5816H10.2678V53.5186H10.1396V53.4556H10.0755V53.3926H10.0114V53.3296H9.94726V53.2666H9.88314V53.2036H9.81903V53.1407H9.75491V53.0777H9.6908V53.0147H9.62668V52.9517H9.56257V52.8887H9.49845V52.8257H9.43434V52.7627H9.37022V52.6997H9.30611V52.6367H9.24199V52.5737H9.17788V52.5107H9.11376V52.4477H9.04965V52.3847H8.98553V52.3217H8.92142V52.2587H8.8573V52.1957H8.79319V52.1327H8.72907V52.0697H8.66496V52.0067H8.60084V51.9437H8.53673V51.8807H8.47261V51.8178H8.4085V51.7548H8.34438V51.6918H8.28027V51.6288H8.21615V51.5658H8.15204V51.4398H8.08792V51.3768H8.02381V51.3138H7.95969V51.2508H7.89558V51.1878H7.83146V51.1248H7.76735V51.0618H7.70323V50.9358H7.63912V50.8728H7.575V50.8098H7.51089V50.7468H7.44677V50.6838H7.38266V50.6208H7.31854V50.4948H7.25443V50.4319H7.19031V50.3689H7.1262V50.3059H7.06208V50.2429H6.99797V50.1169H6.93385V50.0539H6.86974V49.9909H6.80562V49.9279H6.74151V49.8019H6.67739V49.7389H6.61328V49.6759H6.54916V49.6129H6.48505V49.4869H6.42093V49.4239H6.35682V49.3609H6.2927V49.2349H6.22859V49.1719H6.16447V49.1089H6.10036V48.983H6.03624V48.92H5.97213V48.857H5.90801V48.731H5.8439V48.668H5.77978V48.542H5.71567V48.479H5.65155V48.353H5.58744V48.29H5.52332V48.227H5.45921V48.101H5.39509V48.038H5.33098V47.912H5.26686V47.849H5.20274V47.7231H5.13863V47.6601H5.07452V47.5341H5.0104V47.4711H4.94629V47.3451H4.88217V47.2191H4.81806V47.1561H4.75394V47.0301H4.68983V46.9671H4.62571V46.8411H4.56159V46.7781H4.49748V46.6521H4.43336V46.5261H4.36925V46.4631H4.30513V46.3372H4.24102V46.2112H4.1769V46.0852H4.11279V46.0222H4.04867V45.8962H3.98456V45.7702H3.92044V45.6442H3.85633V45.5812H3.79221V45.4552H3.7281V45.3292H3.66398V45.2032H3.59987V45.0772H3.53575V44.9513H3.47164V44.8253H3.40752V44.6993H3.34341V44.5733H3.27929V44.4473H3.21518V44.3213H3.15106V44.1953H3.08695V44.0693H3.02283V43.9433H2.95872V43.8173H2.8946V43.6913H2.83049V43.5654H2.76637V43.3764H2.70226V43.2504H2.63814V43.1244H2.57403V42.9984H2.50991V42.8724H2.4458V42.6834H2.38168V42.5574H2.31757V42.3684H2.25345V42.2425H2.18934V42.0535H2.12522V41.9275H2.06111V41.7385H1.99699V41.5495H1.93288V41.4235H1.86876V41.2345H1.80465V41.0455H1.74053V40.8566H1.67642V40.6676H1.6123V40.4786H1.54819V40.2896H1.48407V40.1006H1.41996V39.9746H1.35584V39.7226H1.29173V39.5337H1.22761V39.2817H1.1635V39.0297H1.09938V38.8407H1.03527V38.5887H0.971153V38.3997H0.907038V38.0848H0.842923V37.8328H0.778808V37.5808H0.714693V37.2658H0.650578V37.0138H0.586463V36.6989H0.522348V36.3209H0.458233V35.9429H0.394118V35.6279H0.330003V35.187H0.265888V34.683H0.201773V34.1791H0.137658V33.5491H0.0735426V32.7302H0.00942753V31.2813H-0.0546875V30.2103H0.00942753V28.8244H0.0735426V28.0055H0.137658V27.3126H0.201773V26.8086H0.265888V26.3676H0.330003V25.9267H0.394118V25.5487H0.458233V25.1707H0.522348V24.8557H0.586463V24.4778H0.650578V24.2258H0.714693V23.9738H0.778808V23.6588H0.842923V23.4068H0.907038V23.1549H0.971153V22.9029H1.03527V22.7139H1.09938V22.4619H1.1635V22.2729H1.22761V22.0209H1.29173V21.769H1.35584V21.58H1.41996V21.391H1.48407V21.202H1.54819V21.013H1.6123V20.824H1.67642V20.635H1.74053V20.4461H1.80465V20.2571H1.86876V20.1311H1.93288V19.9421H1.99699V19.8161H2.06111V19.6271H2.12522V19.4381H2.18934V19.3121H2.25345V19.1232H2.31757V18.9972H2.38168V18.8082H2.4458V18.6822H2.50991V18.5562H2.57403V18.4302H2.63814V18.2412H2.70226V18.1152H2.76637V17.9892H2.83049V17.8633H2.8946V17.7373H2.95872V17.5483H3.02283V17.4223H3.08695V17.2963H3.15106V17.1703H3.21518V17.0443H3.27929V16.9183H3.34341V16.7923H3.40752V16.6663H3.47164V16.5403H3.53575V16.4144H3.59987V16.3514H3.66398V16.2254H3.7281V16.0994H3.79221V15.9734H3.85633V15.8474H3.92044V15.7214H3.98456V15.6584H4.04867V15.5324H4.11279V15.4064H4.1769V15.2804H4.24102V15.2174H4.30513V15.0915H4.36925V14.9655H4.43336V14.9025H4.49748V14.7765H4.56159V14.6505H4.62571V14.5875H4.68983V14.4615H4.75394V14.3985H4.81806V14.2725H4.88217V14.1465H4.94629V14.0835H5.0104V13.9575H5.07452V13.8945H5.13863V13.7686H5.20274V13.7056H5.26686V13.5796H5.33098V13.5166H5.39509V13.3906H5.45921V13.3276H5.52332V13.2016H5.58744V13.1386H5.65155V13.0756H5.71567V12.9496H5.77978V12.8866H5.8439V12.7606H5.90801V12.6976H5.97213V12.6346H6.03624V12.5086H6.10036V12.4457H6.16447V12.3197H6.22859V12.2567H6.2927V12.1937H6.35682V12.1307H6.42093V12.0047H6.48505V11.9417H6.54916V11.8787H6.61328V11.7527H6.67739V11.6897H6.74151V11.6267H6.80562V11.5637H6.86974V11.4377H6.93385V11.3747H6.99797V11.3117H7.06208V11.2487H7.1262V11.1227H7.19031V11.0598H7.25443V10.9968H7.31854V10.9338H7.38266V10.8708H7.44677V10.8078H7.51089V10.6818H7.575V10.6188H7.63912V10.5558H7.70323V10.4928H7.76735V10.4298H7.83146V10.3668H7.89558V10.2408H7.95969V10.1778H8.02381V10.1148H8.08792V10.0518H8.15204V9.98883H8.21615V9.92584H8.28027V9.86284H8.34438V9.79985H8.4085V9.73685H8.47261V9.67385H8.53673V9.61086H8.60084V9.54786H8.66496V9.48487H8.72907V9.42188H8.79319V9.29588H8.8573V9.23289H8.92142V9.16989H8.98553V9.1069H9.04965V9.0439H9.11376V8.98091H9.17788V8.91791H9.24199V8.85492H9.30611V8.79192H9.37022V8.72892H9.43434V8.66593H9.56257V8.60294H9.62668V8.53994H9.6908V8.47694H9.75491V8.41395H9.81903V8.35095H9.88314V8.28796H9.94726V8.22496H10.0114V8.16197H10.0755V8.09897H10.1396V8.03598H10.2037V7.97298H10.2678V7.90998H10.3319V7.84699H10.3961V7.78399H10.5243V7.721H10.5884V7.658H10.6525V7.59501H10.7166V7.53201H10.7808V7.46902H10.8449V7.40602H10.909V7.34303H11.0372V7.28003H11.1013V7.21704H11.1654V7.15404H11.2296V7.09105H11.2937V7.02805H11.3578V6.96505H11.486V6.90206H11.5501V6.83907H11.6142V6.77607H11.7425V6.71307H11.8066V6.65008H11.8707V6.58708H11.9348V6.52409H12.0631V6.46109H12.1272V6.3981H12.1913V6.3351H12.2554V6.27211H12.3836V6.20911H12.4477V6.14611H12.5119V6.08312H12.6401V6.02012H12.7042V5.95713H12.7683V5.89413H12.8965V5.83114H12.9607V5.76814H13.0889V5.70515H13.153V5.64215H13.2171V5.57915H13.3454V5.51616H13.4095V5.45317H13.5377V5.39017H13.6018V5.32718H13.6659V5.26418H13.7942V5.20118H13.8583V5.13819H13.9865V5.0752H14.0506V5.0122H14.1789V4.9492H14.3071V4.88621H14.3712V4.82321H14.4994V4.76022H14.5635V4.69722H14.6918V4.63423H14.7559V4.57123H14.8841V4.50824H15.0123V4.44524H15.0765V4.38224H15.2047V4.31925H15.3329V4.25626H15.397V4.19326H15.5253V4.13026H15.6535V4.06727H15.7817V4.00427H15.8458V3.94128H15.9741V3.87828H16.1023V3.81529H16.1664V3.75229H16.2946V3.6893H16.4229V3.6263H16.5511V3.5633H16.6793V3.50031H16.8076V3.43731H16.9358V3.37432H17.064V3.31133H17.1923V3.24833H17.3205V3.18533H17.4487V3.12234H17.5769V3.05934H17.7052V2.99635H17.8334V2.93335H17.9616V2.87036H18.0899V2.80736H18.2181V2.74437H18.4104V2.68137H18.5387V2.61837H18.6669V2.55538H18.7951V2.49239H18.9234V2.42939H19.1157V2.36639H19.2439V2.3034H19.4363V2.2404H19.5645V2.17741H19.7569V2.11441H19.8851V2.05142H20.0774V1.98842H20.2057V1.92543H20.398V1.86243H20.5262V1.79943H20.7186V1.73644H20.9109V1.67344H21.1033V1.61045H21.2956V1.54745H21.488V1.48446H21.6803V1.42146H21.8727V1.35847H22.065V1.29547H22.3215V1.23248H22.5138V1.16948H22.7703V1.10649H22.9626V1.04349H23.2191V0.980495H23.4114V0.9175H23.6679V0.854504H23.9884V0.791508H24.2449V0.728516H24.5014V0.66552H24.8219V0.602524H25.0784V0.539528H25.4631V0.476532H25.8478V0.413536H26.1684V0.35054H26.5531V0.287548H27.066V0.224552H27.5789V0.161556H28.0277V0.0985603H28.8612V0.0355644H29.7588V-0.0274315H32.7081V0.0355644H33.7339V0.0985603H34.3751V0.161556H35.0162V0.224552H35.5933V0.287548H35.978V0.35054H36.3627V0.413536H36.7473V0.476532H37.132V0.539528H37.4526V0.602524H37.7732V0.66552H38.0296V0.728516H38.2861V0.791508H38.5426V0.854504H38.8631V0.9175H39.1196V0.980495H39.3761V1.04349H39.6325V1.10649H39.8249V1.16948H40.0172V1.23248H40.2737V1.29547H40.466V1.35847H40.6584V1.42146H40.8507V1.48446H41.1072V1.54745H41.2995V1.61045H41.4919V1.67344H41.6201V1.73644H41.8124V1.79943H42.0048V1.86243H42.133V1.92543H42.3253V1.98842H42.5177V2.05142H42.6459V2.11441H42.8383V2.17741H43.0306V2.2404H43.1588V2.3034H43.3512V2.36639H43.4794V2.42939H43.6077V2.49239H43.7359V2.55538H43.9282V2.61837H44.0565V2.68137H44.1847V2.74437H44.3129V2.80736H44.5053V2.87036H44.6335V2.93335H44.7617V2.99635H44.8899V3.05934H45.0182V3.12234H45.1464V3.18533H45.2746V3.24833H45.4029V3.31133H45.5311V3.37432H45.6593V3.43731H45.7876V3.50031H45.9158V3.5633H46.044V3.6263H46.1081V3.6893H46.2364V3.75229H46.3646V3.81529H46.4928V3.87828H46.6211V3.94128H46.7493V4.00427H46.8775V4.06727H46.9416V4.13026H47.0699V4.19326H47.1981V4.25626H47.2622V4.31925H47.3904V4.38224H47.5187V4.44524H47.5828V4.50824H47.711V4.57123H47.7751V4.63423H47.9034V4.69722H48.0316V4.76022H48.0957V4.82321H48.2239V4.88621H48.3522V4.9492H48.4163V5.0122H48.5445V5.0752H48.6086V5.13819H48.7369V5.20118H48.801V5.26418H48.9292V5.32718H48.9933V5.39017H49.0574V5.45317H49.1857V5.51616H49.2498V5.57915H49.378V5.64215H49.4421V5.70515H49.5703V5.76814H49.6345V5.83114H49.6986V5.89413H49.8268V5.95713H49.8909V6.02012H50.0192V6.08312H50.0833V6.14611H50.1474V6.20911H50.2756V6.27211H50.3397V6.3351H50.4038V6.3981H50.5321V6.46109H50.5962V6.52409H50.6603V6.58708H50.7244V6.65008H50.7885V6.71307H50.9168V6.77607H50.9809V6.83907H51.045V6.90206H51.1091V6.96505H51.2373V7.02805H51.3015V7.09105H51.3656V7.15404H51.4297V7.21704H51.5579V7.28003H51.622V7.34303H51.6861V7.40602H51.7503V7.46902H51.8785V7.53201H51.9426V7.59501H52.0067V7.658H52.0708V7.721H52.1349V7.78399H52.1991V7.84699H52.2632V7.90998H52.3273V7.97298H52.3914V8.03598H52.4555V8.09897H52.5196V8.16197H52.6479V8.22496H52.712V8.28796H52.7761V8.35095H52.8402V8.41395H52.9043V8.47694H52.9684V8.53994H53.0326V8.60294H53.0967V8.66593H53.1608V8.72892H53.2249V8.79192H53.289V8.85492H53.3531V8.91791H53.4172V8.98091H53.4814V9.0439H53.5455V9.1069H53.6096V9.16989H53.6737V9.23289H53.7378V9.29588H53.8019V9.35888H53.8661V9.42188H53.9302V9.48487H53.9943V9.54786H54.0584V9.61086H54.1225V9.67385H54.1866V9.73685H54.2507V9.79985H54.3149V9.86284H54.379V9.92584H54.4431V9.98883H54.5072V10.0518H54.5713V10.1778H54.6354V10.2408H54.6996V10.3038H54.7637V10.3668H54.8278V10.4298H54.8919V10.4928H54.956V10.5558H55.0201V10.6818H55.0842V10.7448H55.1484V10.8078H55.2125V10.8708H55.2766V10.9338H55.3407V11.0598H55.4048V11.1227H55.4689V11.1857H55.533V11.2487H55.5972V11.3117H55.6613V11.4377H55.7254V11.5007H55.7895V11.5637H55.8536V11.6267H55.9177V11.6897H55.9818V11.8157H56.046V11.8787H56.1101V11.9417H56.1742V12.0677H56.2383V12.1307H56.3024V12.1937H56.3665V12.3197H56.4307V12.3827H56.4948V12.4457H56.5589V12.5716H56.623V12.6346H56.6871V12.7606H56.7512V12.8236H56.8153V12.8866H56.8795V13.0126H56.9436V13.0756H57.0077V13.1386H57.0718V13.2646H57.1359V13.3276H57.2V13.3906H57.2642V13.5166H57.3283V13.6426H57.3924V13.7056H57.4565V13.8316H57.5206V13.8945H57.5847V14.0205H57.6488V14.0835H57.713V14.2095H57.7771V14.2725H57.8412V14.3985H57.9053V14.4615H57.9694V14.5875H58.0335V14.6505H58.0976V14.7765H58.1618V14.9025H58.2259V14.9655H58.29V15.0915H58.3541V15.2174H58.4182V15.4694H58.4823V16.0364H58.4182V16.2254H58.3541V16.3514H58.29V16.4774H58.2259V16.5403H58.1618V16.6033H58.0976V16.6663H58.0335V16.7923H57.9053V16.8553H57.8412V16.9183H57.6488V16.9813H57.3924V17.0443H57.2V16.9813H56.7512V16.9183H56.623V16.8553H56.4948V16.7923H56.3665V16.7293H56.3024V16.6663H56.2383V16.6033H56.1742V16.5403H56.1101V16.4774H56.046V16.3514H55.9818V16.2254H55.9177V16.1624H55.8536V16.0364H55.7895V15.9104H55.7254V15.8474H55.6613V15.7214H55.5972V15.6584H55.533V15.5324H55.4689V15.4694H55.4048V15.3434H55.3407V15.2804H55.2766V15.1545H55.2125V15.0915H55.1484V14.9655H55.0842V14.9025H55.0201V14.7765H54.956V14.7135H54.8919V14.5875H54.8278V14.5245H54.7637V14.4615H54.6996V14.3355H54.6354V14.2725H54.5713V14.2095H54.5072V14.0835H54.4431V14.0205H54.379V13.9575H54.3149V13.8316H54.2507V13.7686H54.1866V13.6426H54.1225V13.5796H54.0584V13.5166H53.9943V13.3906H53.9302V13.3276H53.8661V13.2646H53.8019V13.2016H53.7378V13.1386H53.6737V13.0126H53.6096V12.9496H53.5455V12.8866H53.4814V12.8236H53.4172V12.7606H53.3531V12.6346H53.289V12.5716H53.2249V12.5086H53.1608V12.4457H53.0967V12.3827H53.0326V12.2567H52.9684V12.1937H52.9043V12.1307H52.8402V12.0677H52.7761V12.0047H52.712V11.9417H52.6479V11.8787H52.5838V11.8157H52.5196V11.6897H52.4555V11.6267H52.3914V11.5637H52.3273V11.5007H52.2632V11.4377H52.1991V11.3747H52.1349V11.3117H52.0708V11.2487H52.0067V11.1857H51.9426V11.1227H51.8785V11.0598H51.8144V10.9968H51.7503V10.9338H51.6861V10.8708H51.622V10.8078H51.5579V10.7448H51.4938V10.6818H51.4297V10.6188H51.3656V10.5558H51.3015V10.4928H51.2373V10.4298H51.1732V10.3668H51.1091V10.3038H51.045V10.2408H50.9809V10.1778H50.9168V10.1148H50.7885V10.0518H50.7244V9.98883H50.6603V9.92584H50.5962V9.86284H50.5321V9.79985H50.468V9.73685H50.4038V9.67385H50.3397V9.61086H50.2756V9.54786H50.2115V9.48487H50.1474V9.42188H50.0192V9.35888H49.955V9.29588H49.8909V9.23289H49.8268V9.16989H49.6986V9.1069H49.6345V9.0439H49.5703V8.98091H49.5062V8.91791H49.378V8.85492H49.3139V8.79192H49.2498V8.72892H49.1857V8.66593H49.0574V8.60294H48.9933V8.53994H48.9292V8.47694H48.8651V8.41395H48.801V8.35095H48.6727V8.28796H48.6086V8.22496H48.5445V8.16197H48.4163V8.09897H48.3522V8.03598H48.2239V7.97298H48.1598V7.90998H48.0957V7.84699H47.9675V7.78399H47.9034V7.721H47.7751V7.658H47.711V7.59501H47.5828V7.53201H47.5187V7.46902H47.4546V7.40602H47.3263V7.34303H47.2622V7.28003H47.134V7.21704H47.0699V7.15404H46.9416V7.09105H46.8775V7.02805H46.7493V6.96505H46.6211V6.90206H46.5569V6.83907H46.4287V6.77607H46.3005V6.71307H46.2364V6.65008H46.1081V6.58708H46.044V6.52409H45.9158V6.46109H45.7876V6.3981H45.7234V6.3351H45.5952V6.27211H45.467V6.20911H45.3388V6.14611H45.2105V6.08312H45.1464V6.02012H45.0182V5.95713H44.8899V5.89413H44.7617V5.83114H44.6335V5.76814H44.5053V5.70515H44.377V5.64215H44.2488V5.57915H44.1206V5.51616H44.0565V5.45317H43.9282V5.39017H43.8V5.32718H43.6077V5.26418H43.4794V5.20118H43.3512V5.13819H43.223V5.0752H43.0306V5.0122H42.9024V4.9492H42.7742V4.88621H42.6459V4.82321H42.5177V4.76022H42.3253V4.69722H42.1971V4.63423H42.0048V4.57123H41.8765V4.50824H41.6842V4.44524H41.4919V4.38224H41.3636V4.31925H41.1713V4.25626H40.9789V4.19326H40.8507V4.13026H40.6584V4.06727H40.466V4.00427H40.2737V3.94128H40.0813V3.87828H39.889V3.81529H39.6325V3.75229H39.4402V3.6893H39.2478V3.6263H39.0555V3.5633H38.799V3.50031H38.5426V3.43731H38.2861V3.37432H38.0296V3.31133H37.7732V3.24833H37.4526V3.18533H37.1961V3.12234H36.9397V3.05934H36.555V2.99635H36.1703V2.93335H35.7856V2.87036H35.4009V2.80736H35.0162V2.74437H34.3751V2.68137H33.7339V2.61837H33.0287V2.55538H29.6306V2.61837H28.7971V2.68137H28.1559V2.74437H27.643V2.80736H27.1301V2.87036H26.7454V2.93335H26.3607V2.99635H26.0401V3.05934H25.6554V3.12234H25.3349V3.18533H25.0784V3.24833H24.8219V3.31133H24.5014V3.37432H24.2449V3.43731H23.9884V3.50031H23.7961V3.5633H23.5396V3.6263H23.3473V3.6893H23.0908V3.75229H22.8985V3.81529H22.7061V3.87828H22.5138V3.94128H22.3215V4.00427H22.1291V4.06727H21.9368V4.13026H21.7444V4.19326H21.5521V4.25626H21.3597V4.31925H21.2315V4.38224H21.0392V4.44524H20.9109V4.50824H20.7186V4.57123H20.5262V4.63423H20.398V4.69722H20.2057V4.76022H20.0774V4.82321H19.9492V4.88621H19.821V4.9492H19.6286V5.0122H19.5004V5.0752H19.3722V5.13819H19.2439V5.20118H19.1157V5.26418H18.9234V5.32718H18.7951V5.39017H18.6669V5.45317H18.5387V5.51616H18.4104V5.57915H18.3463V5.64215H18.2181V5.70515H18.0899V5.76814H17.9616V5.83114H17.8334V5.89413H17.7052V5.95713H17.5769V6.02012H17.4487V6.08312H17.3846V6.14611H17.2564V6.20911H17.1281V6.27211H16.9999V6.3351H16.9358V6.3981H16.8076V6.46109H16.6793V6.52409H16.5511V6.58708H16.487V6.65008H16.3588V6.71307H16.2305V6.77607H16.1664V6.83907H16.0382V6.90206H15.9741V6.96505H15.8458V7.02805H15.7817V7.09105H15.6535V7.15404H15.5894V7.21704H15.4612V7.28003H15.3329V7.34303H15.2688V7.40602H15.2047V7.46902H15.0765V7.53201H15.0123V7.59501H14.8841V7.658H14.82V7.721H14.6918V7.78399H14.6277V7.84699H14.5635V7.90998H14.4353V7.97298H14.3712V8.03598H14.243V8.09897H14.1789V8.16197H14.1147V8.22496H13.9865V8.28796H13.9224V8.35095H13.8583V8.41395H13.7942V8.47694H13.6659V8.53994H13.6018V8.60294H13.5377V8.66593H13.4736V8.72892H13.3454V8.79192H13.2812V8.85492H13.2171V8.91791H13.0889V8.98091H13.0248V9.0439H12.9607V9.1069H12.8965V9.16989H12.8324V9.23289H12.7683V9.29588H12.6401V9.35888H12.576V9.42188H12.5119V9.48487H12.4477V9.54786H12.3836V9.61086H12.3195V9.67385H12.2554V9.73685H12.1272V9.79985H12.0631V9.86284H11.9989V9.92584H11.9348V9.98883H11.8707V10.0518H11.8066V10.1148H11.7425V10.1778H11.6784V10.2408H11.6142V10.3038H11.5501V10.3668H11.486V10.4298H11.4219V10.4928H11.3578V10.5558H11.2937V10.6188H11.2296V10.6818H11.1013V10.7448H11.0372V10.8078H10.9731V10.8708H10.909V10.9338H10.8449V11.0598H10.7808V11.1227H10.7166V11.1857H10.6525V11.2487H10.5884V11.3117H10.5243V11.3747H10.4602V11.4377H10.3961V11.5007H10.3319V11.5637H10.2678V11.6267H10.2037V11.6897H10.1396V11.7527H10.0755V11.8157H10.0114V11.8787H9.94726V11.9417H9.88314V12.0677H9.81903V12.1307H9.75491V12.1937H9.6908V12.2567H9.62668V12.3197H9.56257V12.3827H9.49845V12.5086H9.43434V12.5716H9.37022V12.6346H9.30611V12.6976H9.24199V12.7606H9.17788V12.8236H9.11376V12.9496H9.04965V13.0126H8.98553V13.0756H8.92142V13.1386H8.8573V13.2646H8.79319V13.3276H8.72907V13.3906H8.66496V13.5166H8.60084V13.5796H8.53673V13.6426H8.47261V13.7056H8.4085V13.8316H8.34438V13.8945H8.28027V13.9575H8.21615V14.0835H8.15204V14.1465H8.08792V14.2095H8.02381V14.3355H7.95969V14.3985H7.89558V14.5245H7.83146V14.5875H7.76735V14.6505H7.70323V14.7765H7.63912V14.8395H7.575V14.9655H7.51089V15.0285H7.44677V15.1545H7.38266V15.2174H7.31854V15.3434H7.25443V15.4064H7.19031V15.5324H7.1262V15.6584H7.06208V15.7214H6.99797V15.8474H6.93385V15.9104H6.86974V16.0364H6.80562V16.0994H6.74151V16.2254H6.67739V16.3514H6.61328V16.4144H6.54916V16.5403H6.48505V16.6663H6.42093V16.7923H6.35682V16.8553H6.2927V16.9813H6.22859V17.1073H6.16447V17.2333H6.10036V17.2963H6.03624V17.4223H5.97213V17.5483H5.90801V17.6743H5.8439V17.8003H5.77978V17.9262H5.71567V18.0522H5.65155V18.1782H5.58744V18.3042H5.52332V18.4302H5.45921V18.5562H5.39509V18.6822H5.33098V18.8082H5.26686V18.9342H5.20274V19.1232H5.13863V19.2491H5.07452V19.3751H5.0104V19.5011H4.94629V19.6271H4.88217V19.8161H4.81806V19.9421H4.75394V20.1311H4.68983V20.2571H4.62571V20.4461H4.56159V20.5721H4.49748V20.761H4.43336V20.887H4.36925V21.076H4.30513V21.265H4.24102V21.454H4.1769V21.643H4.11279V21.832H4.04867V22.0209H3.98456V22.2099H3.92044V22.3989H3.85633V22.5879H3.79221V22.7769H3.7281V23.0289H3.66398V23.2809H3.59987V23.4698H3.53575V23.7218H3.47164V23.9738H3.40752V24.2258H3.34341V24.4778H3.27929V24.7927H3.21518V25.0447H3.15106V25.3597H3.08695V25.7377H3.02283V26.0527H2.95872V26.4306H2.8946V26.8716H2.83049V27.3755H2.76637V27.8795H2.70226V28.6985H2.63814V29.7694H2.57403V31.7852H2.63814V32.7932H2.70226V33.6121H2.76637V34.1161H2.83049V34.62H2.8946V35.061H2.95872V35.439H3.02283V35.8169H3.08695V36.1319H3.15106V36.5099H3.21518V36.7619H3.27929V37.0138H3.34341V37.2658H3.40752V37.5808H3.47164V37.8328H3.53575V38.0218H3.59987V38.2737H3.66398V38.5257H3.7281V38.7147H3.79221V38.9667H3.85633V39.1557H3.92044V39.3447H3.98456V39.5337H4.04867V39.7226H4.11279V39.9116H4.1769V40.1006H4.24102V40.2896H4.30513V40.4786H4.36925V40.6046H4.43336V40.7936H4.49748V40.9196H4.56159V41.1085H4.62571V41.2345H4.68983V41.4235H4.75394V41.5495H4.81806V41.7385H4.88217V41.8645H4.94629V41.9905H5.0104V42.1165H5.07452V42.3055H5.13863V42.4314H5.20274V42.5574H5.26686V42.6834H5.33098V42.8094H5.39509V42.9984H5.45921V43.1244H5.52332V43.2504H5.58744V43.3764H5.65155V43.4394H5.71567V43.5654H5.77978V43.6913H5.8439V43.8173H5.90801V43.9433H5.97213V44.0693H6.03624V44.1953H6.10036V44.3213H6.16447V44.4473H6.22859V44.5103H6.2927V44.6363H6.35682V44.7623H6.42093V44.8883H6.48505V44.9513H6.54916V45.0772H6.61328V45.2032H6.67739V45.3292H6.74151V45.3922H6.80562V45.5182H6.86974V45.5812H6.93385V45.7072H6.99797V45.7702H7.06208V45.8962H7.1262V46.0222H7.19031V46.0852H7.25443V46.2112H7.31854V46.2742H7.38266V46.4001H7.44677V46.4631H7.51089V46.5891H7.575V46.6521H7.63912V46.7781H7.70323V46.8411H7.76735V46.9041H7.83146V47.0301H7.89558V47.0931H7.95969V47.2191H8.02381V47.2821H8.08792V47.3451H8.15204V47.4711H8.21615V47.5341H8.28027V47.6601H8.34438V47.7231H8.4085V47.786H8.47261V47.849H8.53673V47.975H8.60084V48.038H8.66496V48.101H8.72907V48.227H8.79319V48.29H8.8573V48.353H8.92142V48.416H8.98553V48.542H9.04965V48.605H9.11376V48.668H9.17788V48.731H9.24199V48.857H9.30611V48.92H9.37022V48.983H9.43434V49.046H9.49845V49.1089H9.56257V49.1719H9.62668V49.2349H9.6908V49.3609H9.75491V49.4239H9.81903V49.4869H9.88314V49.5499H9.94726V49.6129H10.0114V49.6759H10.0755V49.7389H10.1396V49.8019H10.2037V49.9279H10.2678V49.9909H10.3319V50.0539H10.3961V50.1169H10.4602V50.1799H10.5243V50.2429H10.5884V50.3059H10.6525V50.3689H10.7166V50.4319H10.7808V50.4948H10.8449V50.5578H10.909V50.6208H10.9731V50.6838H11.0372V50.7468H11.1013V50.8098H11.1654V50.8728H11.2296V50.9358H11.2937V50.9988H11.3578V51.0618H11.4219V51.1248H11.486V51.1878H11.5501V51.2508H11.6142V51.3138H11.6784V51.3768H11.7425V51.4398H11.8066V51.5028H11.9348V51.5658H11.9989V51.6288H12.0631V51.6918H12.1272V51.7548H12.1913V51.8178H12.2554V51.8807H12.3195V51.9437H12.3836V52.0067H12.5119V52.0697H12.576V52.1327H12.6401V52.1957H12.7042V52.2587H12.7683V52.3217H12.8324V52.3847H12.8965V52.4477H13.0248V52.5107H13.0889V52.5737H13.153V52.6367H13.2171V52.6997H13.3454V52.7627H13.4095V52.8257H13.4736V52.8887H13.5377V52.9517H13.6659V53.0147H13.73V53.0777H13.7942V53.1407H13.9224V53.2036H13.9865V53.2666H14.0506V53.3296H14.1147V53.3926H14.243V53.4556H14.3071V53.5186H14.4353V53.5816H14.4994V53.6446H14.5635V53.7076H14.6918V53.7706H14.7559V53.8336H14.8841V53.8966H14.9482V53.9596H15.0123V54.0226H15.1406V54.0856H15.2047V54.1486H15.3329V54.2116H15.397V54.2746H15.5253V54.3376H15.5894V54.4006H15.7176V54.4636H15.7817V54.5266H15.91V54.5895H16.0382V54.6525H16.1023V54.7155H16.2305V54.7785H16.2946V54.8415H16.4229V54.9045H16.487V54.9675H16.6152V55.0305H16.7435V55.0935H16.8717V55.1565H16.9358V55.2195H17.064V55.2825H17.1923V55.3455H17.3205V55.4085H17.3846V55.4715H17.5128V55.5345H17.6411V55.5975H17.7693V55.6605H17.8975V55.7235H18.0258V55.7865H18.154V55.8495H18.2822V55.9124H18.4104V55.9754H18.4746V56.0384H18.6028V56.1014H18.731V56.1644H18.8592V56.2274H18.9875V56.2904H19.1798V56.3534H19.3081V56.4164H19.4363V56.4794H19.5645V56.5424H19.7569V56.6054H19.8851V56.6684H20.0133V56.7314H20.1415V56.7944H20.3339V56.8574H20.4621V56.9204H20.6545V56.9834H20.7827V57.0464H20.975V57.1094H21.1033V57.1724H21.2956V57.2354H21.4238V57.2983H21.6162V57.3613H21.8085V57.4243H22.0009V57.4873H22.1932V57.5503H22.3856V57.6133H22.5779V57.6763H22.7703V57.7393H22.9626V57.8023H23.2191V57.8653H23.4114V57.9283H23.6679V57.9913H23.8602V58.0543H24.1167V58.1173H24.3731V58.1803H24.6296V58.2433H24.9502V58.3063H25.2066V58.3693H25.4631V58.4323H25.8478V58.4953H26.1684V58.5583H26.5531V58.6212H26.8736V58.6842H27.3865V58.7472H27.8995V58.8102H28.4124V58.8732H29.1818V58.9362H30.2717V58.9992H32.3234V58.9362H33.4134V58.8732H34.0545V58.8102H34.6957V58.7472H35.2086V58.6842H35.5933V58.6212H35.978V58.5583H36.3627V58.4953H36.7473V58.4323H37.0679V58.3693H37.3244V58.3063H37.645V58.2433H37.9014V58.1803H38.1579V58.1173H38.4143V58.0543H38.7349V57.9913H38.9273V57.9283H39.1196V57.8653H39.3119V57.8023H39.5684V57.7393H39.7607V57.6763H39.9531V57.6133H40.2096V57.5503H40.4019V57.4873H40.5942V57.4243H40.7225V57.3613H40.9148V57.2983H41.1072V57.2354H41.2354V57.1724H41.4277V57.1094H41.6201V57.0464H41.7483V56.9834H41.9407V56.9204H42.133V56.8574H42.2612V56.7944H42.3895V56.7314H42.5818V56.6684H42.71V56.6054H42.8383V56.5424H42.9665V56.4794H43.1588V56.4164H43.2871V56.3534H43.4153V56.2904H43.5435V56.2274H43.6718V56.1644H43.8641V56.1014H43.9923V56.0384H44.1206V55.9754H44.1847V55.9124H44.3129V55.8495H44.4411V55.7865H44.5694V55.7235H44.6976V55.6605H44.8258V55.5975H44.9541V55.5345H45.0823V55.4715H45.2105V55.4085H45.2746V55.3455H45.4029V55.2825H45.5311V55.2195H45.6593V55.1565H45.7234V55.0935H45.8517V55.0305H45.9799V54.9675H46.044V54.9045H46.1723V54.8415H46.3005V54.7785H46.3646V54.7155H46.4928V54.6525H46.5569V54.5895H46.6852V54.5266H46.8134V54.4636H46.8775V54.4006H47.0057V54.3376H47.134V54.2746H47.1981V54.2116H47.2622V54.1486H47.3904V54.0856H47.4546V54.0226H47.5828V53.9596H47.6469V53.8966H47.7751V53.8336H47.8392V53.7706H47.9034V53.7076H48.0316V53.6446H48.0957V53.5816H48.2239V53.5186H48.288V53.4556H48.4163V53.3926H48.4804V53.3296H48.5445V53.2666H48.6727V53.2036H48.7369V53.1407H48.801V53.0777H48.8651V53.0147H48.9933V52.9517H49.0574V52.8887H49.1215V52.8257H49.1857V52.7627H49.3139V52.6997H49.378V52.6367H49.4421V52.5737H49.5062V52.5107H49.6345V52.4477H49.6986V52.3847H49.7627V52.3217H49.8268V52.2587H49.955V52.1957H50.0192V52.1327H50.0833V52.0697H50.1474V52.0067H50.2115V51.9437H50.2756V51.8807H50.3397V51.8178H50.4038V51.7548H50.5321V51.6918H50.5962V51.6288H50.6603V51.5658H50.7244V51.5028H50.7885V51.4398H50.8526V51.3768H50.9168V51.3138H50.9809V51.2508H51.045V51.1878H51.1091V51.1248H51.1732V51.0618H51.3015V50.9988H51.3656V50.9358H51.4297V50.8728H51.4938V50.8098H51.5579V50.7468H51.622V50.6838H51.6861V50.6208H51.7503V50.5578H51.8144V50.4319H51.8785V50.3689H51.9426V50.3059H52.0067V50.2429H52.0708V50.1799H52.1349V50.1169H52.1991V50.0539H52.2632V49.9909H52.3273V49.9279H52.3914V49.8649H52.4555V49.8019H52.5196V49.7389H52.5838V49.6759H52.6479V49.6129H52.712V49.5499H52.7761V49.4869H52.8402V49.3609H52.9043V49.2979H52.9684V49.2349H53.0326V49.1719H53.0967V49.1089H53.1608V48.983H53.2249V48.92H53.289V48.857H53.3531V48.794H53.4172V48.731H53.4814V48.668H53.5455V48.542H53.6096V48.479H53.6737V48.416H53.7378V48.353H53.8019V48.29H53.8661V48.164H53.9302V48.101H53.9943V48.038H54.0584V47.912H54.1225V47.849H54.1866V47.786H54.2507V47.6601H54.3149V47.5971H54.379V47.5341H54.4431V47.4081H54.5072V47.3451H54.5713V47.2821H54.6354V47.1561H54.6996V47.0931H54.7637V46.9671H54.8278V46.9041H54.8919V46.8411H54.956V46.7151H55.0201V46.6521H55.0842V46.5261H55.1484V46.4631H55.2125V46.3372H55.2766V46.2742H55.3407V46.1482H55.4048V46.0852H55.4689V45.9592H55.533V45.8962H55.5972V45.7702H55.6613V45.7072H55.7254V45.5812H55.7895V45.5182H55.8536V45.3922H55.9177V45.2662H55.9818V45.2032H56.046V45.0772H56.1101V44.9513H56.1742V44.8883H56.2383V44.8253H56.3024V44.7623H56.4307V44.6993H56.5589V44.6363H56.6871V44.5733H56.8153V44.5103H57.5206V44.5733H57.7771V44.6363H57.8412V44.6993H57.9694V44.7623H58.0335V44.8253H58.0976V44.8883H58.1618V44.9513H58.2259V45.0143H58.29V45.2032H58.3541V45.3292H58.4182V45.5182H58.4823V46.0852H58.4182V46.2742H58.3541V46.4001H58.29V46.5261H58.2259V46.6521H58.1618V46.7151H58.0976V46.8411H58.0335V46.9671H57.9694V47.0301H57.9053V47.1561H57.8412V47.2191H57.7771V47.3451H57.713V47.4081H57.6488V47.5341H57.5847V47.5971H57.5206V47.7231H57.4565V47.786H57.3924V47.912H57.3283V48.038H57.2642V48.101H57.2V48.164H57.1359V48.29H57.0718V48.353H57.0077V48.479H56.9436V48.542H56.8795V48.605H56.8153V48.731H56.7512V48.794H56.6871V48.857H56.623V48.983H56.5589V49.046H56.4948V49.1089H56.4307V49.2349H56.3665V49.2979H56.3024V49.4239H56.2383V49.4869H56.1742V49.5499H56.1101V49.6759H56.046V49.7389H55.9818V49.8019H55.9177V49.8649H55.8536V49.9909H55.7895V50.0539H55.7254V50.1169H55.6613V50.1799H55.5972V50.2429H55.533V50.3689H55.4689V50.4319H55.4048V50.4948H55.3407V50.5578H55.2766V50.6208H55.2125V50.6838H55.1484V50.8098H55.0842V50.8728H55.0201V50.9358H54.956V50.9988H54.8919V51.0618H54.8278V51.1878H54.7637V51.2508H54.6996V51.3138H54.6354V51.3768H54.5713V51.4398H54.5072V51.5028H54.4431V51.5658H54.379V51.6288H54.3149V51.6918H54.2507V51.7548H54.1866V51.8178H54.1225V51.8807H54.0584V51.9437H53.9943V52.0067H53.9302V52.0697H53.8661V52.1957H53.8019V52.2587H53.7378V52.3217H53.6737V52.3847H53.6096V52.4477H53.5455V52.5107H53.4814V52.5737H53.4172V52.6367H53.3531V52.6997H53.289V52.7627H53.2249V52.8257H53.1608V52.8887H53.0967V52.9517H53.0326V53.0147H52.9043V53.0777H52.8402V53.1407H52.7761V53.2036H52.712V53.2666H52.6479V53.3296H52.5838V53.3926H52.5196V53.4556H52.4555V53.5186H52.3914V53.5816H52.3273V53.6446H52.2632V53.7076H52.1349V53.7706H52.0708V53.8336H52.0067V53.8966H51.9426V53.9596H51.8785V54.0226H51.8144V54.0856H51.7503V54.1486H51.6861V54.2116H51.5579V54.2746H51.4938V54.3376H51.4297V54.4006H51.3656V54.4636H51.2373V54.5266H51.1732V54.5895H51.1091V54.6525H51.045V54.7155H50.9168V54.7785H50.8526V54.8415H50.7885V54.9045H50.7244V54.9675H50.5962V55.0305H50.5321V55.0935H50.468V55.1565H50.4038V55.2195H50.2756V55.2825H50.2115V55.3455H50.1474V55.4085H50.0192V55.4715H49.955V55.5345H49.8909V55.5975H49.7627V55.6605H49.6986V55.7235H49.5703V55.7865H49.5062V55.8495H49.378V55.9124H49.3139V55.9754H49.2498V56.0384H49.1215V56.1014H49.0574V56.1644H48.9292V56.2274H48.8651V56.2904H48.801V56.3534H48.6727V56.4164H48.6086V56.4794H48.4804V56.5424H48.3522V56.6054H48.288V56.6684H48.1598V56.7314H48.0957V56.7944H47.9675V56.8574H47.8392V56.9204H47.7751V56.9834H47.6469V57.0464H47.5187V57.1094H47.4546V57.1724H47.3263V57.2354H47.2622V57.2983H47.134V57.3613H47.0057V57.4243H46.9416V57.4873H46.8134V57.5503H46.6852V57.6133H46.5569V57.6763H46.4287V57.7393H46.3005V57.8023H46.1723V57.8653H46.1081V57.9283H45.9799V57.9913H45.8517V58.0543H45.7234V58.1173H45.5952V58.1803H45.467V58.2433H45.3388V58.3063H45.2105V58.3693H45.0823V58.4323H44.9541V58.4953H44.8258V58.5583H44.6976V58.6212H44.5694V58.6842H44.377V58.7472H44.2488V58.8102H44.1206V58.8732H43.9923V58.9362H43.8641V58.9992H43.6718V59.0622H43.5435V59.1252H43.4153V59.1882H43.2871V59.2512H43.0947V59.3142H42.9024V59.3772H42.7742V59.4402H42.5818V59.5032H42.3895V59.5662H42.2612V59.6292H42.0689V59.6922H41.8765V59.7552H41.7483V59.8182H41.556V59.8812H41.3636V59.9442H41.1713V60.0071H40.9789V60.0701H40.7866V60.1331H40.5301V60.1961H40.3378V60.2591H40.1454V60.3221H39.9531V60.3851H39.6966V60.4481H39.5043V60.5111H39.2478V60.5741H38.9914V60.6371H38.7349V60.7001H38.4143V60.7631H38.1579V60.8261H37.9014V60.8891H37.645V60.9521H37.3244V61.0151H36.9397V61.0781H36.555V61.1411H36.1703V61.2041H35.7856V61.2671H35.3368V61.33H34.6957V61.393H34.0545V61.456H33.4134V61.519H32.0028V61.582" fill="url(#paint0_linear_7147_13152)"/>
</g>
</g>
<defs>
<linearGradient id="paint0_linear_7147_13152" x1="12.4881" y1="5.44813" x2="45.6633" y2="57.129" gradientUnits="userSpaceOnUse">
<stop stop-color="#F8D50D"/>
<stop offset="1" stop-color="#F5A310"/>
</linearGradient>
</defs>
</svg>
