<svg width="153" height="29" viewBox="0 0 153 29" fill="none" xmlns="http://www.w3.org/2000/svg">
<path d="M52.6395 14.3479C52.5782 14.3881 52.5987 14.4483 52.5782 14.5085C52.2307 15.9332 51.8627 17.358 51.4743 18.7827C50.9019 20.95 50.3091 23.0972 49.7367 25.2644C49.6549 25.5453 49.6958 25.5052 49.3892 25.5052H45.8526C45.546 25.5052 45.5869 25.5253 45.5255 25.2443C44.7692 22.5353 44.0332 19.8463 43.2769 17.1372C43.0929 16.475 42.9498 15.7928 42.8067 15.1305C42.7658 14.9098 42.7045 14.669 42.6636 14.4483C42.6636 14.4282 42.6636 14.3881 42.6227 14.3881V14.6088C42.7249 18.1607 42.6636 21.6925 42.684 25.2443C42.684 25.4851 42.7045 25.4851 42.4387 25.4851H37.6347C37.3894 25.4851 37.3894 25.4851 37.3894 25.2443V8.68903C37.3894 8.36795 37.369 8.40809 37.6756 8.40809H44.2377C44.5238 8.40809 44.483 8.36795 44.5852 8.66896C45.3824 11.3981 46.2001 14.1071 46.9974 16.8362C47.1609 17.378 47.2836 17.9399 47.4063 18.4817C47.4676 18.7627 47.5493 19.0436 47.6107 19.3045C47.6924 19.2844 47.672 19.2242 47.6924 19.1841C47.7947 18.7025 47.8969 18.2008 48.0195 17.7192C48.1626 17.1172 48.3671 16.5352 48.5306 15.9533C49.2665 13.5452 49.982 11.1171 50.7179 8.70909C50.8202 8.40809 50.7384 8.42815 51.0859 8.42815H57.6071C57.9342 8.42815 57.9137 8.38802 57.9137 8.72916V25.2042C57.9137 25.5253 57.9546 25.5052 57.6071 25.5052H52.9053C52.5987 25.5052 52.6395 25.5253 52.6395 25.2243C52.6395 23.6992 52.66 22.1941 52.66 20.669C52.6804 18.6423 52.6804 16.5954 52.7009 14.5687C52.66 14.4884 52.6804 14.4081 52.6395 14.3479Z" fill="#0295CA"/>
<path d="M11.918 0C11.9589 0.0401341 11.9384 0.0802675 11.9384 0.140469V1.08362C11.9384 1.68563 11.9793 2.28764 12.0815 2.86959C12.1633 3.33113 12.2655 3.7726 12.4699 4.19401C12.5313 4.33448 12.5926 4.47495 12.6744 4.59535C13.1446 5.3579 13.8396 5.75924 14.7186 5.85957C14.9435 5.87964 15.1479 5.89971 15.3728 5.89971H34.2208C34.5888 5.89971 34.9772 5.87964 35.3247 5.7793C35.9993 5.5987 36.5104 5.21743 36.8783 4.65555C37.1441 4.25421 37.2872 3.8328 37.4098 3.37126C37.5325 2.90972 37.5938 2.42811 37.6143 1.9465C37.6552 1.36456 37.6552 0.782614 37.6552 0.20067V0H37.696C37.9822 0.421408 38.1867 0.882949 38.1662 1.40469C38.1662 2.42811 38.1458 3.45153 38.1662 4.47495C38.1867 5.49836 37.7778 6.30105 37.0214 6.96326C36.5513 7.38467 35.9993 7.6656 35.3656 7.78601C35.2634 7.80607 35.1816 7.84621 35.0998 7.90641C34.8341 8.12715 34.5683 8.34788 34.2821 8.54855C33.8937 8.84956 33.4644 9.1305 33.0147 9.3713C32.3401 9.71244 31.6451 9.93318 30.8682 9.97331H30.7865C30.7456 9.97331 30.7251 9.99338 30.7251 10.0335C30.7047 10.1539 30.7047 10.2944 30.6843 10.4148C30.6434 10.9767 30.6229 11.5385 30.5616 12.0804C30.4594 13.3245 30.2958 14.5486 29.9279 15.7526C29.6212 16.7359 29.1919 17.659 28.5582 18.4817C28.456 18.6222 28.3334 18.7627 28.2107 18.8831C28.1289 18.9633 28.088 19.0637 28.088 19.1841V20.4082C28.088 21.9734 28.1085 23.5186 28.1085 25.0838V26.0671C28.1085 26.7895 27.8427 27.4116 27.3317 27.9333C26.8615 28.4149 26.2891 28.6959 25.6349 28.8765C24.2244 29.2778 22.7525 28.6356 22.0371 27.8932C21.6487 27.4918 21.4033 27.0303 21.3011 26.4885C21.2807 26.3279 21.2807 26.1674 21.2807 26.0069V19.164C21.2807 19.0637 21.2602 19.0035 21.1989 18.9232C21.0558 18.7426 20.8923 18.562 20.7492 18.3814C20.1972 17.6389 19.8088 16.7961 19.5226 15.9132C19.3182 15.2309 19.1751 14.5486 19.0729 13.8463C18.9502 12.9834 18.8685 12.1406 18.8276 11.2777C18.8071 10.8763 18.7663 10.475 18.7458 10.0536C18.7458 9.95325 18.7254 9.95325 18.6232 9.93318C17.7237 9.89305 16.906 9.59204 16.1496 9.15057C15.6385 8.84956 15.1888 8.50842 14.7391 8.14721C14.6369 8.06695 14.5142 7.98668 14.412 7.88634C14.3302 7.80607 14.228 7.76594 14.1054 7.74587C13.0015 7.485 12.1838 6.88299 11.6522 5.89971C11.4274 5.49836 11.3252 5.05689 11.3252 4.59535V1.36456C11.3252 1.06355 11.3865 0.802679 11.5092 0.521741C11.5909 0.361205 11.6727 0.20067 11.7749 0.0401334C11.8567 0.0401334 11.8771 0 11.918 0Z" fill="#068546"/>
<path d="M121.286 15.4917C121.245 15.6322 121.286 15.7727 121.306 15.9132C121.306 16.0737 121.326 16.2142 121.347 16.3747C121.347 16.756 121.367 17.1372 121.367 17.5185V25.1841C121.367 25.5052 121.408 25.4851 121.081 25.4851H116.134C115.807 25.4851 115.848 25.5052 115.848 25.2042V8.68902C115.848 8.36795 115.827 8.40808 116.134 8.40808H121.245C121.347 8.38802 121.429 8.44822 121.49 8.52848C121.654 8.78936 121.838 9.05023 122.001 9.3111C123.514 11.679 125.047 14.0269 126.56 16.3948C126.826 16.8162 127.01 17.2576 127.193 17.7192C127.296 17.96 127.377 18.2209 127.48 18.4617C127.5 18.4817 127.48 18.5219 127.541 18.5419V18.4215C127.439 17.659 127.439 16.8964 127.439 16.1339V8.48835C127.439 8.42815 127.48 8.40808 127.541 8.40808H132.733C133.04 8.40808 132.999 8.38802 132.999 8.66895V25.2042C132.999 25.4851 133.04 25.4651 132.713 25.4651H127.664C127.398 25.4651 127.439 25.4851 127.296 25.2644C125.64 22.7159 124.004 20.1674 122.349 17.6189C122.022 17.1172 121.797 16.5954 121.572 16.0536C121.51 15.873 121.449 15.7125 121.388 15.5319C121.326 15.5319 121.326 15.5118 121.286 15.4917V15.4315C121.286 15.4115 121.286 15.4115 121.265 15.3914C121.265 15.4115 121.245 15.4115 121.245 15.4315C121.245 15.4516 121.245 15.4917 121.286 15.4917Z" fill="#0295CA"/>
<path d="M94.6081 16.9566V25.1641C94.6081 25.5253 94.649 25.4851 94.281 25.4851H88.9864C88.782 25.4851 88.782 25.4851 88.782 25.2644V18.9232C88.782 18.8831 88.7615 18.863 88.7206 18.863H83.4669C83.3647 18.863 83.3442 18.8831 83.3238 18.9834V25.3647C83.3238 25.4851 83.3034 25.4851 83.1807 25.5052H77.6203C77.4977 25.5052 77.4772 25.4851 77.4772 25.3647V8.7693C77.4772 8.40809 77.4363 8.44822 77.8043 8.44822H83.2216C83.3034 8.44822 83.3238 8.46829 83.3238 8.56862V14.0469C83.3238 14.2275 83.3238 14.2275 83.5078 14.2275H88.6797C88.7411 14.2275 88.7615 14.1874 88.7615 14.1272V8.48835C88.7615 8.44822 88.782 8.42815 88.8228 8.42815H94.5059C94.5468 8.42815 94.5876 8.46829 94.5876 8.50842V8.74923C94.6081 11.4783 94.6081 14.2075 94.6081 16.9566Z" fill="#0295CA"/>
<path d="M101.661 17.1774C101.661 17.7192 101.661 17.8396 101.783 18.5821C101.865 19.0637 101.988 19.5453 102.213 20.0068C102.601 20.8095 103.235 21.3313 104.134 21.552C104.85 21.7326 105.545 21.7326 106.26 21.5721C107.201 21.3714 107.875 20.8296 108.284 19.9667C108.305 19.9266 108.325 19.8864 108.345 19.8262C108.55 19.3246 108.673 18.7827 108.734 18.2409C108.795 17.6791 108.795 17.1172 108.795 16.5754C108.795 16.0737 108.734 15.5921 108.632 15.0904C108.55 14.6489 108.427 14.2476 108.223 13.8463C107.814 13.0636 107.18 12.582 106.301 12.3814C105.667 12.2409 105.013 12.2409 104.359 12.3412C103.337 12.5218 102.601 13.0837 102.172 14.0269C102.029 14.368 101.927 14.7091 101.845 15.0703C101.681 15.6924 101.64 16.3346 101.661 17.1774ZM105.075 25.9467C104.237 25.9467 103.255 25.8664 102.315 25.6457C101.088 25.3647 99.9845 24.8831 98.9828 24.1206C97.6336 23.0972 96.7137 21.7527 96.223 20.1473C96.0186 19.465 95.896 18.7627 95.8142 18.0603C95.7529 17.4985 95.7529 16.9366 95.7733 16.3546C95.8346 15.0703 96.0799 13.8262 96.6319 12.6623C97.47 10.9365 98.7784 9.67231 100.536 8.86963C101.395 8.46829 102.294 8.22748 103.235 8.08701C104.114 7.96661 104.993 7.92648 105.892 7.96661C107.078 8.02681 108.223 8.20742 109.327 8.62883C111.923 9.63218 113.579 11.4583 114.315 14.0871C114.478 14.6891 114.56 15.2911 114.621 15.8931C114.662 16.4148 114.683 16.9366 114.662 17.4784C114.621 18.7225 114.396 19.9266 113.885 21.0704C113.109 22.8162 111.821 24.1005 110.104 24.9433C109.245 25.3647 108.325 25.6256 107.364 25.7861C106.628 25.9065 105.913 25.9667 105.075 25.9467Z" fill="#0295CA"/>
<path d="M2.86196 20.1674H5.58081C5.68303 20.1674 5.70347 20.1874 5.72391 20.2878C5.74435 20.348 5.7648 20.3881 5.78524 20.4483C6.03055 21.2108 6.56206 21.6523 7.35931 21.8129C8.01348 21.9333 8.64719 21.9533 9.30136 21.8129C9.608 21.7527 9.87375 21.6523 10.1395 21.4717C10.3439 21.3313 10.487 21.1506 10.5484 20.9299C10.6301 20.649 10.5688 20.368 10.3644 20.1473C10.2213 19.9868 10.0373 19.8664 9.8533 19.746C9.54667 19.5854 9.24003 19.465 8.91295 19.3647C8.42233 19.2041 7.91126 19.1038 7.4002 18.9834C6.25542 18.7025 5.09019 18.4015 3.9863 18.0202C3.63877 17.8998 3.27081 17.7794 2.94373 17.5988C1.57408 16.9165 0.695046 15.8329 0.429293 14.3279C0.265753 13.4248 0.327081 12.5419 0.613276 11.679C0.899472 10.8362 1.43098 10.1339 2.12602 9.57197C2.84151 9.0101 3.63877 8.62882 4.5178 8.36795C5.11064 8.18735 5.70347 8.08701 6.31675 8.02681C7.09356 7.94654 7.84994 7.92648 8.62675 7.94654C9.73065 7.98668 10.8345 8.14721 11.8771 8.50842C12.5926 8.76929 13.2672 9.11043 13.86 9.59204C14.7595 10.3145 15.3319 11.2375 15.6181 12.3412C15.6794 12.6222 15.7408 12.9031 15.7612 13.184C15.7612 13.2844 15.7408 13.3044 15.659 13.3044H10.5075C10.2213 13.3044 10.2622 13.3446 10.1804 13.0636C10.0373 12.562 9.71021 12.2008 9.19914 12.0001C8.93339 11.8997 8.6472 11.8395 8.361 11.8195C7.95215 11.7994 7.5433 11.7793 7.13445 11.8596C6.90958 11.8997 6.70515 11.9599 6.52117 12.0603C6.13276 12.281 5.98966 12.6623 6.03055 13.0636C6.05099 13.2041 6.11232 13.3245 6.21453 13.4248C6.33719 13.5653 6.50073 13.6857 6.66427 13.786C6.90958 13.9265 7.17533 14.0269 7.44109 14.1272C7.97259 14.3078 8.52454 14.4282 9.05605 14.5687C10.1599 14.8295 11.2638 15.0904 12.3473 15.4315C12.613 15.5118 12.8584 15.6121 13.1241 15.7125C13.8396 15.9734 14.4529 16.4148 15.0048 16.9366C15.6385 17.5587 16.027 18.2811 16.17 19.1439C16.3336 20.1072 16.2723 21.0704 15.9656 22.0135C15.6181 23.0369 14.9844 23.8597 14.0849 24.4818C13.4103 24.9433 12.6744 25.2644 11.8771 25.4851C11.1412 25.6858 10.3644 25.8263 9.608 25.8865C8.81074 25.9467 8.01348 25.9667 7.21622 25.9266C6.07143 25.8664 4.94709 25.6858 3.88408 25.2644C3.06638 24.9433 2.35089 24.5018 1.71717 23.9199C0.919914 23.1774 0.429293 22.2744 0.16354 21.2309C0.0817702 20.9299 0.0204425 20.6088 0 20.2878C0 20.2075 0.0204425 20.1874 0.102213 20.1874H0.306638C1.16522 20.1674 2.00337 20.1674 2.86196 20.1674Z" fill="#0295CA"/>
<path d="M65.641 14.3479V15.9533C65.641 16.0737 65.6614 16.0737 65.7841 16.0938H67.8897C68.2168 16.0938 68.5234 16.0737 68.83 16.0336C69.1162 15.9934 69.382 15.9533 69.6682 15.853C70.0975 15.6924 70.3837 15.3914 70.4859 14.9499C70.5676 14.5887 70.5676 14.2476 70.5063 13.8864C70.4859 13.766 70.445 13.6456 70.3837 13.5252C70.261 13.2442 70.0566 13.0436 69.7499 12.9232C69.6273 12.883 69.5046 12.8429 69.382 12.8028C69.0345 12.7225 68.6665 12.6824 68.2985 12.6623C67.4604 12.6222 66.6018 12.6422 65.7637 12.6422H65.6819C65.6206 12.6422 65.6001 12.6623 65.5797 12.7225V12.9232C65.641 13.3646 65.641 13.8663 65.641 14.3479ZM59.8149 16.9566V8.70909C59.8149 8.38802 59.7944 8.40808 60.1215 8.40808H67.256C67.8692 8.40808 68.4825 8.42815 69.0753 8.44822C69.9544 8.48835 70.8334 8.56862 71.692 8.76929C72.1008 8.86963 72.5097 8.99003 72.8981 9.15056C73.7362 9.4917 74.4313 10.0134 75.0037 10.6957C75.5352 11.3379 75.8827 12.0804 76.0258 12.883C76.2302 13.9466 76.2302 15.0101 75.9645 16.0737C75.5556 17.7393 74.5335 18.9031 72.939 19.5854C72.3053 19.8463 71.6511 20.0269 70.9765 20.1272C70.3223 20.2276 69.6477 20.2476 68.9731 20.2476H65.7841C65.6614 20.2476 65.641 20.2677 65.641 20.3881V25.1841C65.641 25.4851 65.6819 25.4651 65.3548 25.4651H60.0806C59.774 25.4651 59.7944 25.4851 59.7944 25.2042C59.8149 22.455 59.8149 19.7058 59.8149 16.9566Z" fill="#0295CA"/>
<path d="M137.21 8.40808H140.195C140.481 8.40808 140.44 8.38802 140.563 8.62882C141.524 10.3947 142.485 12.1606 143.425 13.9466C143.466 14.0269 143.507 14.0871 143.548 14.1473C143.568 14.1874 143.609 14.1673 143.629 14.1473C143.67 14.0871 143.711 14.0269 143.732 13.9667C144.692 12.2208 145.633 10.4549 146.593 8.70909C146.777 8.36795 146.696 8.42815 147.064 8.42815H152.951C152.992 8.42815 153.012 8.46829 152.992 8.48835C152.951 8.54855 152.931 8.60876 152.89 8.66896C151.234 11.3981 149.558 14.1473 147.902 16.8764C147.493 17.5587 147.064 18.2409 146.655 18.9232C146.553 19.0837 146.512 19.2443 146.512 19.445V25.1641C146.512 25.5052 146.553 25.4651 146.205 25.4651H140.951C140.624 25.4651 140.665 25.4851 140.665 25.1841V19.3848C140.665 19.2242 140.624 19.0837 140.542 18.9433C138.396 15.5118 136.25 12.0603 134.103 8.62882C134.062 8.56862 134.042 8.52849 134.001 8.46829C133.98 8.44822 133.98 8.40808 134.042 8.40808H134.267C135.248 8.40808 136.229 8.40808 137.21 8.40808Z" fill="#0295CA"/>
</svg>
