<svg width="78" height="24" viewBox="0 0 78 24" fill="none" xmlns="http://www.w3.org/2000/svg">
<path fill-rule="evenodd" clip-rule="evenodd" d="M51.4971 5.18364V7.35984H47.8143V13.577C47.8143 14.8976 48.5815 15.558 49.8548 15.558C50.5432 15.5455 51.2234 15.4458 51.8828 15.259L52.2187 17.4601C51.5925 17.7051 50.4893 17.8754 49.4856 17.8754C46.8728 17.8754 45.2305 16.4135 45.2305 13.8884V7.35984H43.0075V5.18364H45.272V1.1967H47.7811V5.18364H51.4971ZM37.3543 10.1175C35.7783 9.79353 35.1936 9.40314 35.1936 8.62652C35.1936 7.7087 36.1309 7.17711 38.0179 7.17711C39.316 7.17711 40.8049 7.46367 41.8168 7.90389L42.0906 5.67785C41.0496 5.22517 39.4238 4.92615 37.8893 4.92615C34.7664 4.92615 32.6844 6.47939 32.6844 8.58915C32.6844 10.5079 33.854 11.7579 36.0521 12.2023L37.8976 12.5761C39.5109 12.9 40.1869 13.3527 40.1869 14.1958C40.1869 15.1551 39.3118 15.6203 37.4414 15.6203C35.9733 15.6037 34.5217 15.2963 33.1697 14.7232L32.8586 16.9409C33.9369 17.5224 35.7078 17.8712 37.6073 17.8712C40.639 17.8712 42.6919 16.6668 42.6919 14.1542C42.6919 11.9905 41.3399 10.9315 38.8017 10.4123L37.3543 10.1175ZM51.846 11.4008C51.846 7.76269 54.6828 4.92615 58.4817 4.92615C62.2807 4.92615 65.1174 7.76269 65.1174 11.4008C65.1174 15.0388 62.2848 17.8754 58.4859 17.8754C54.6869 17.8754 51.8502 15.0388 51.8502 11.4008H51.846ZM54.4215 11.4008C54.4215 13.6933 56.1302 15.4666 58.4859 15.4666C60.8415 15.4666 62.5461 13.6891 62.5461 11.4008C62.5461 9.10828 60.8415 7.33492 58.4859 7.33492C56.1302 7.33492 54.4256 9.10828 54.4256 11.4008H54.4215ZM67.2572 5.18362L70.4921 9.56094L73.7311 5.18362H76.6965L72.0929 11.2678L76.8001 17.6137H73.839L70.4921 12.9664L67.1493 17.6137H64.184L68.8912 11.2678L64.2877 5.18362H67.2572ZM21.4452 6.88224C22.37 5.70277 23.776 4.92615 25.8952 4.92615C29.4454 4.92615 32.166 7.6464 32.166 11.4672C32.166 15.288 29.4454 17.8754 25.8952 17.8754C23.776 17.8754 22.37 17.0988 21.4452 15.9193V22.7968H18.8697V5.18779H21.4452V6.88224ZM21.4618 11.4672C21.4618 13.7597 23.1912 15.5704 25.5842 15.5704C27.9896 15.5704 29.5905 13.7555 29.5947 11.4672C29.5947 9.17473 27.9938 7.2311 25.5883 7.2311H25.5842C23.1788 7.23525 21.4618 9.17473 21.4618 11.4672ZM5.62792 11.8451C6.00532 11.5793 6.36199 11.2803 6.68963 10.9522C7.30343 10.3417 7.81356 9.63985 8.2034 8.87153V12.1857C8.2034 14.2456 9.33562 15.4334 11.2475 15.4334C13.2134 15.4334 14.7603 14.2456 14.7603 12.1857V5.18362H17.3317V17.6137H14.7437V16.048C14.329 16.6834 13.1429 17.8712 10.8411 17.8712C7.432 17.8712 5.62377 15.749 5.62377 12.7297L5.62792 11.8451ZM0 13.2696V10.7778C1.50133 10.7736 2.94045 10.1839 4.01046 9.14146C4.53302 8.62233 4.9519 8.00767 5.23806 7.33073C5.52423 6.64962 5.67353 5.92284 5.67353 5.18775H8.19925C8.19925 6.25093 7.98774 7.30165 7.57301 8.28178C7.16242 9.2619 6.55691 10.1507 5.79795 10.8982C4.251 12.4182 2.16905 13.2696 0 13.2696Z" fill="#542087"/>
</svg>
