<?xml version="1.0" encoding="UTF-8" standalone="no" ?>
<!DOCTYPE svg PUBLIC "-//W3C//DTD SVG 1.1//EN" "http://www.w3.org/Graphics/SVG/1.1/DTD/svg11.dtd">
<svg xmlns="http://www.w3.org/2000/svg" xmlns:xlink="http://www.w3.org/1999/xlink" version="1.1" width="640" height="480" viewBox="0 0 640 480" xml:space="preserve">
<desc>Created with Fabric.js 3.6.6</desc>
<defs>
</defs>
<g transform="matrix(3.34 0 0 3.19 321.05 239.5)"  >
<g style=""   >
		<g transform="matrix(7.45 0 0 8.55 15.33 36.68)" clip-path="url(#CLIPPATH_5)"  >
<clipPath id="CLIPPATH_5" >
	<rect transform="matrix(1 0 0 1 -36.1 7.47)" x="-46.5" y="-20" rx="0" ry="0" width="93" height="40" />
</clipPath>
<path style="stroke: none; stroke-width: 1; stroke-dasharray: none; stroke-linecap: butt; stroke-dashoffset: 0; stroke-linejoin: miter; stroke-miterlimit: 4; fill: rgb(39,106,180); fill-rule: nonzero; opacity: 1;"  transform=" translate(-82.6, -12.53)" d="M 90.6184 9.11731 C 88.9289 11.0175 86.4302 12.8534 83.4129 14.2579 C 80.2995 15.7079 77.1797 16.4443 74.5786 16.4775 L 76.1301 14.0151 C 78.0078 13.8699 80.2242 13.2746 82.4573 12.2352 C 84.6696 11.2063 86.5326 9.90768 87.8437 8.58002 L 90.6184 9.11523 V 9.11731 Z" stroke-linecap="round" />
</g>
		<g transform="matrix(7.45 0 0 8.55 -66.92 24.23)" clip-path="url(#CLIPPATH_6)"  >
<clipPath id="CLIPPATH_6" >
	<rect transform="matrix(1 0 0 1 -25.06 8.93)" x="-46.5" y="-20" rx="0" ry="0" width="93" height="40" />
</clipPath>
<path style="stroke: none; stroke-width: 1; stroke-dasharray: none; stroke-linecap: butt; stroke-dashoffset: 0; stroke-linejoin: miter; stroke-miterlimit: 4; fill: rgb(68,183,73); fill-rule: nonzero; opacity: 1;"  transform=" translate(-71.56, -11.07)" d="M 75.0323 14.0504 L 73.5185 16.4526 C 71.0469 16.2908 69.1755 15.4175 68.4311 13.8471 C 67.3585 11.5797 68.9183 8.4431 72.1196 5.68613 L 74.4427 6.3707 C 71.8415 8.4348 70.5033 10.7561 71.2602 12.3597 C 71.7767 13.4488 73.1693 14.011 75.0323 14.0504 Z" stroke-linecap="round" />
</g>
		<g transform="matrix(7.45 0 0 8.55 18.07 -34.77)" clip-path="url(#CLIPPATH_7)"  >
<clipPath id="CLIPPATH_7" >
	<rect transform="matrix(1 0 0 1 -36.47 15.83)" x="-46.5" y="-20" rx="0" ry="0" width="93" height="40" />
</clipPath>
<path style="stroke: none; stroke-width: 1; stroke-dasharray: none; stroke-linecap: butt; stroke-dashoffset: 0; stroke-linejoin: miter; stroke-miterlimit: 4; fill: rgb(39,106,180); fill-rule: nonzero; opacity: 1;"  transform=" translate(-82.97, -4.17)" d="M 91.2582 8.34561 L 88.5316 7.8187 C 89.7444 6.34167 90.2295 4.88332 89.7025 3.7714 C 88.6131 1.46666 83.6011 1.52267 78.5075 3.89379 C 77.3386 4.43731 76.2681 5.0555 75.325 5.71311 L 72.9434 5.01193 C 74.3025 3.9581 75.9021 2.98102 77.6816 2.15124 C 84.3727 -0.964624 90.9027 -0.580846 92.6613 2.56406 C 93.4328 4.19667 92.8411 6.27944 91.254 8.34561" stroke-linecap="round" />
</g>
		<g transform="matrix(7.45 0 0 8.55 8.72 -1.72)" clip-path="url(#CLIPPATH_8)"  >
<clipPath id="CLIPPATH_8" >
	<rect transform="matrix(1 0 0 1 -35.22 11.97)" x="-46.5" y="-20" rx="0" ry="0" width="93" height="40" />
</clipPath>
<path style="stroke: none; stroke-width: 1; stroke-dasharray: none; stroke-linecap: butt; stroke-dashoffset: 0; stroke-linejoin: miter; stroke-miterlimit: 4; fill: rgb(68,183,73); fill-rule: nonzero; opacity: 1;"  transform=" translate(-81.72, -8.03)" d="M 82.0809 11.2706 C 79.5007 12.4717 76.9623 12.9758 75.1996 12.7642 L 76.7427 11.1233 C 77.9095 11.3557 79.7223 11.0341 81.5624 10.1774 C 84.3225 8.89327 86.104 6.89141 85.5436 5.70688 C 84.9832 4.52236 82.2921 4.60534 79.5341 5.88944 C 78.6267 6.31263 77.8237 6.81258 77.1755 7.33742 L 75.1849 7.20673 C 76.2053 6.33545 77.5164 5.49736 79.0177 4.79619 C 83.185 2.85656 87.2498 2.73209 88.0946 4.52028 C 88.9393 6.30848 86.2462 9.33099 82.0789 11.2706" stroke-linecap="round" />
</g>
		<g transform="matrix(7.45 0 0 8.55 -30.2 14.96)" clip-path="url(#CLIPPATH_9)"  >
<clipPath id="CLIPPATH_9" >
	<rect transform="matrix(1 0 0 1 -29.99 10.01)" x="-46.5" y="-20" rx="0" ry="0" width="93" height="40" />
</clipPath>
<path style="stroke: none; stroke-width: 1; stroke-dasharray: none; stroke-linecap: butt; stroke-dashoffset: 0; stroke-linejoin: miter; stroke-miterlimit: 4; fill: rgb(13,69,147); fill-rule: nonzero; opacity: 1;"  transform=" translate(-76.49, -9.99)" d="M 80.1238 7.53242 L 76.7469 11.1233 L 75.2038 12.7642 C 74.1186 12.6335 73.3303 12.229 73.0062 11.5486 C 72.4646 10.4035 73.3721 8.75428 75.1891 7.20673 L 77.1818 7.33742 L 80.128 7.53242 H 80.1238 Z" stroke-linecap="round" />
</g>
</g>
</g>
</svg>