<svg xmlns="http://www.w3.org/2000/svg" width="44" height="44" viewBox="0 0 44 44" fill="none">
  <g transform="translate(1.5, 4.5)">
    <path fill="#2E51FF" d="M17.077.145c.097-.193.362-.193.482 0l20.608 34.487a.542.542 0 0 1-.458.82H31.85a.52.52 0 0 1-.457-.266L13.92 5.973a.57.57 0 0 1 0-.554zM6.157 29.766c.217 0 .337.218.241.41l-1.47 2.552-1.47 2.553c-.097.169-.362.169-.46 0l-1.47-2.553-1.495-2.552c-.096-.17.025-.41.242-.41zm6.99 0c.218 0 .338.218.242.41l-1.47 2.552-1.471 2.553c-.096.169-.362.169-.459 0l-2.941-5.105c-.096-.17.024-.41.241-.41zm7.11 0c.217 0 .337.218.241.41l-1.47 2.552-1.47 2.553c-.097.169-.362.169-.46 0l-2.94-5.105c-.097-.17.023-.41.24-.41zm7.087 0c.217 0 .337.218.24.41l-1.47 2.552-1.47 2.553c-.096.169-.362.169-.459 0l-2.941-5.105c-.096-.17.024-.41.241-.41zM9.58 23.6c.217 0 .337.217.241.41l-1.47 2.552-1.471 2.552c-.096.17-.361.17-.459 0l-2.94-5.105c-.097-.169.023-.409.24-.409zm7.158 0c.218 0 .338.217.242.41l-1.47 2.552-1.471 2.552c-.096.17-.362.17-.458 0L10.64 24.01c-.096-.169.024-.409.241-.409zm6.918 0c.217 0 .337.217.241.41l-1.47 2.552-1.471 2.552c-.096.17-.361.17-.458 0l-2.94-5.105c-.097-.169.023-.409.24-.409zM13.123 17.58c.217 0 .337.217.24.409l-1.47 2.553-1.47 2.552c-.096.17-.362.17-.459 0l-1.47-2.552-1.471-2.553c-.096-.17.024-.409.241-.409zm7.231 0c.218 0 .338.217.242.409l-1.471 2.553-1.47 2.552c-.097.17-.362.17-.458 0l-1.47-2.552-1.471-2.553c-.096-.17.024-.409.241-.409zM16.666 11.654c.218 0 .338.218.242.41l-1.471 2.552-1.47 2.553c-.097.169-.362.169-.458 0l-2.941-5.105c-.096-.17.024-.41.241-.41z"/>
  </g>
</svg>
