<svg width="36" height="36" viewBox="0 0 36 36" fill="none" xmlns="http://www.w3.org/2000/svg">
<path d="M18 36C27.9411 36 36 27.9411 36 18C36 8.05889 27.9411 0 18 0C8.05885 0 0 8.05889 0 18C0 27.9411 8.05885 36 18 36Z" fill="url(#paint0_linear_33798_2669)"/>
<path fill-rule="evenodd" clip-rule="evenodd" d="M26.1644 34.0485L11.9974 23.0805L13.9978 18.0036L10.6128 13.3882L11.9974 9.23438H26.3051L35.9974 18.0485C35.9804 25.0304 31.9882 31.0782 26.1644 34.0485Z" fill="#17875F"/>
<path d="M27.6813 11.7559H23.5753V27.9725C22.9057 27.9725 22.2462 27.8445 21.5964 27.5885C20.9464 27.3522 20.6215 27.0765 20.6215 26.7614V23.2464C19.2431 24.1128 17.7465 24.546 16.1317 24.546C14.5168 24.546 13.1976 24.1325 12.1736 23.3053C11.1693 22.4586 10.6671 21.3657 10.6671 20.0266C10.6671 19.0027 11.0216 18.0869 11.7304 17.2795C10.7262 16.9054 9.92863 16.354 9.33784 15.6253C8.74708 14.8771 8.45166 13.9908 8.45166 12.967C8.45166 11.9429 8.86523 11.0075 9.69233 10.1607C10.5391 9.31404 11.6911 8.89062 13.1484 8.89062C14.2117 8.89062 15.0289 9.12688 15.6 9.59953C16.1908 10.0721 16.4862 10.653 16.4862 11.3423C16.4862 12.7405 15.5802 13.7251 13.7687 14.2961C13.4733 14.0599 13.2566 13.7251 13.1187 13.2919C13.926 12.7601 14.3299 12.199 14.3299 11.6081C14.3299 11.2733 14.2314 11.0075 14.0344 10.8106C13.8375 10.594 13.5225 10.4857 13.0893 10.4857C12.656 10.4857 12.2326 10.7221 11.8191 11.1946C11.4055 11.6672 11.1988 12.2875 11.1988 13.0555C11.1988 13.8039 11.4055 14.434 11.8191 14.9461C12.2523 15.4383 12.7938 15.7829 13.4436 15.9799C14.3101 15.5467 15.2849 15.2218 16.3681 15.005C17.1163 15.7141 17.5889 16.4524 17.7859 17.2204C16.5648 17.4568 15.5311 17.8309 14.6844 18.343C13.8573 18.8353 13.4436 19.4064 13.4436 20.0562C13.4436 20.6863 13.6603 21.1982 14.0936 21.5922C14.5465 21.9861 15.1864 22.1829 16.0135 22.1829C16.8603 22.1829 17.6973 21.9467 18.5244 21.474C19.3514 21.0013 20.0505 20.3811 20.6215 19.613V11.7559H18.5834C17.8745 10.9287 17.5201 10.0524 17.5201 9.12688H26.7656C27.376 9.91458 27.6813 10.7909 27.6813 11.7559Z" fill="white"/>
<defs>
<linearGradient id="paint0_linear_33798_2669" x1="33.75" y1="30.6" x2="20.898" y2="-0.489331" gradientUnits="userSpaceOnUse">
<stop stop-color="#138C61"/>
<stop offset="1" stop-color="#4DBA93" stop-opacity="0.99"/>
</linearGradient>
</defs>
</svg>
