<svg viewBox="11.32 0 26.87 29.28" width="26.87" height="29.28" fill="none" xmlns="http://www.w3.org/2000/svg"><path d="M11.918 0c.04.04.02.08.02.14v.944c0 .602.041 1.204.143 1.786.082.461.184.903.389 1.324.061.14.123.28.204.401.47.763 1.166 1.164 2.045 1.265.225.02.429.04.654.04H34.22c.368 0 .756-.02 1.104-.12a2.6 2.6 0 0 0 1.553-1.124c.266-.402.41-.823.532-1.285s.184-.943.204-1.424c.041-.582.041-1.164.041-1.746V0h.041c.286.421.49.883.47 1.405 0 1.023-.02 2.047 0 3.07s-.388 1.826-1.145 2.488a3.4 3.4 0 0 1-1.655.823.64.64 0 0 0-.266.12c-.266.221-.532.442-.818.643a9 9 0 0 1-1.267.822c-.675.341-1.37.562-2.147.602h-.081q-.062 0-.062.06c-.02.12-.02.261-.04.382-.042.562-.062 1.124-.123 1.665-.103 1.245-.266 2.469-.634 3.673-.307.983-.736 1.906-1.37 2.729-.102.14-.225.28-.347.401a.4.4 0 0 0-.123.301v1.224c0 1.565.02 3.11.02 4.676v.983c0 .723-.265 1.345-.776 1.866-.47.482-1.043.763-1.697.944-1.41.4-2.883-.241-3.598-.984a2.7 2.7 0 0 1-.736-1.405c-.02-.16-.02-.32-.02-.481v-6.843c0-.1-.02-.16-.082-.24-.143-.181-.307-.362-.45-.543-.552-.742-.94-1.585-1.226-2.468a14 14 0 0 1-.45-2.067 27 27 0 0 1-.245-2.568c-.02-.402-.062-.803-.082-1.224 0-.1-.02-.1-.123-.12-.9-.04-1.717-.342-2.473-.783a12 12 0 0 1-1.41-1.004c-.103-.08-.226-.16-.328-.26a.54.54 0 0 0-.307-.141C13 7.485 12.183 6.883 11.651 5.9a2.63 2.63 0 0 1-.327-1.305v-3.23c0-.301.062-.562.184-.843a6 6 0 0 1 .266-.482c.082 0 .102-.04.143-.04" fill="#068546"/></svg>